<svg width="20" height="20" viewBox="0 0 20 20" fill="none" xmlns="http://www.w3.org/2000/svg">
<g clip-path="url(#clip0_10492_1308)">
<path d="M17.6884 14.4799L18.3568 15.5017C16.9945 17.5568 14.9542 18.9498 12.7115 19.5764L11.7435 18.9093C11.7435 18.9093 11.4347 19.421 11.5142 19.8459C9.52714 20.1467 7.41444 19.8921 5.51302 18.9431L5.46258 17.8587L5.44556 17.4429L4.49815 18.3572C2.72567 17.185 1.44885 15.4827 0.721593 13.6014L1.44256 12.9621L0.350377 12.4399C-0.228209 10.1842 -0.0419255 7.72079 1.05666 5.51341L1.79874 5.30597L1.6426 4.49854C3.00495 2.44345 5.04523 1.05038 7.28786 0.42378C7.33587 0.410803 7.37794 0.408133 7.4261 0.39523L7.45416 0.627979L8.44562 0.902625L8.48526 0.15432C10.4723 -0.146431 12.585 0.108149 14.4864 1.05705L14.5297 2.08338L14.5837 2.06043L15.5013 1.64299C17.284 2.82109 18.5506 4.51758 19.2778 6.3988L19.2878 6.4046L18.8867 7.05272L19.6592 7.56635C20.2276 9.81595 20.0414 12.2794 18.9427 14.4868L17.6884 14.4799Z" fill="#FF641A"/>
<path d="M17.6883 14.4801L18.3568 15.5018C16.9944 17.557 14.9541 18.95 12.7116 19.5766L11.7434 18.9095C11.7434 18.9095 11.4347 19.4212 11.5141 19.8461C9.5271 20.1468 7.4144 19.8923 5.51299 18.9433L5.46255 17.8588L14.5837 2.06063L15.5012 1.64319C17.2839 2.82129 18.5506 4.51777 19.2778 6.399L19.2879 6.4048L18.8867 7.05292L19.6591 7.56654C20.2276 9.81614 20.0413 12.2796 18.9428 14.487L17.6883 14.4801Z" fill="#F03800"/>
<path d="M10.214 10.8004L9.02456 12.8607C10.4414 13.9223 11.0764 15.5879 11.6827 17.2099C11.9944 18.0528 12.2974 18.8638 12.7114 19.5765C12.3214 19.6896 11.9168 19.7808 11.5139 19.8459C11.1464 19.1466 10.862 18.3735 10.5761 17.6264C10.0187 16.1544 9.49878 14.7582 8.43281 13.8856L5.51289 18.9431C5.33457 18.8537 5.17204 18.7598 4.99958 18.6603C4.82714 18.5607 4.66459 18.4669 4.49802 18.3572L7.41795 13.2997C6.12935 12.8128 4.6602 13.0607 3.10671 13.3139C2.32692 13.4457 1.52112 13.5758 0.721467 13.6014C0.570592 13.2301 0.447309 12.8342 0.35025 12.4398C1.15838 12.4464 2.02825 12.2989 2.91409 12.1474C4.62191 11.8614 6.38194 11.5785 8.00968 12.2748L9.19918 10.2145L1.05654 5.51335C1.14592 5.33503 1.23977 5.17249 1.33932 5.00004C1.43889 4.82759 1.53274 4.66505 1.64247 4.49848L9.78511 9.19964L10.9746 7.13936C9.55775 6.07784 8.92276 4.41215 8.31647 2.79017C8.00481 1.94722 7.69166 1.13036 7.28781 0.423589C7.67783 0.31048 8.08235 0.219296 8.48521 0.154129C8.84691 0.863699 9.143 1.61644 9.42309 2.37368C9.98048 3.84568 10.5004 5.24195 11.5664 6.11445L14.4863 1.05699C14.6646 1.14638 14.8271 1.24023 14.9996 1.33978C15.172 1.43935 15.3346 1.53319 15.5011 1.64293L12.5813 6.70038C13.8698 7.18728 15.3389 6.9394 16.8925 6.68612C17.6664 6.56454 18.4721 6.43442 19.2777 6.39875L19.2877 6.40454C19.4329 6.78611 19.5518 7.16595 19.6591 7.56616C18.8408 7.55375 17.9709 7.70116 17.085 7.85273C15.3773 8.13865 13.6173 8.42158 11.9895 7.72531L10.8 9.78557L18.9426 14.4867C18.8533 14.665 18.7594 14.8276 18.6598 15C18.5603 15.1725 18.4665 15.335 18.3567 15.5016L10.214 10.8004Z" fill="#FFBD86"/>
<path d="M10.2144 10.8005L9.02488 12.8608C10.4418 13.9223 11.0767 15.588 11.683 17.21C11.9947 18.0529 12.2977 18.8639 12.7117 19.5766C12.3217 19.6897 11.9171 19.7809 11.5142 19.846C11.1467 19.1467 10.8624 18.3736 10.5764 17.6265C10.019 16.1545 9.49911 14.7582 8.43314 13.8857L5.51322 18.9431C5.3349 18.8538 5.17235 18.7599 4.99991 18.6603L14.9999 1.33984C15.1724 1.43941 15.3349 1.53325 15.5015 1.64299L12.5816 6.70044C13.8701 7.18734 15.3392 6.93947 16.8928 6.68618C17.6667 6.5646 18.4725 6.43448 19.278 6.39881L19.288 6.4046C19.4332 6.78617 19.5521 7.16601 19.6595 7.56622C18.8411 7.55381 17.9712 7.70122 17.0854 7.85279C15.3776 8.13871 13.6176 8.42164 11.9898 7.72537L10.8003 9.78563L18.9429 14.4868C18.8536 14.6651 18.7597 14.8277 18.6601 15.0001C18.5606 15.1726 18.4668 15.3351 18.357 15.5017L10.2144 10.8005Z" fill="#F6A96C"/>
</g>
<defs>
<clipPath id="clip0_10492_1308">
<rect width="20" height="20" fill="white"/>
</clipPath>
</defs>
</svg>
