<svg width="8" height="8" viewBox="0 0 8 8" fill="none" xmlns="http://www.w3.org/2000/svg">
<g clip-path="url(#clip0_3218_12122)">
<path d="M2 4L4 2L6 4L4 6L2 4Z" fill="#EC622B"/>
<path d="M7.3475 3.63178L4.3685 0.65228C4.27077 0.554728 4.13833 0.499939 4.00025 0.499939C3.86217 0.499939 3.72973 0.554728 3.632 0.65228L0.65225 3.63178C0.554698 3.72951 0.499908 3.86195 0.499908 4.00003C0.499908 4.13811 0.554698 4.27055 0.65225 4.36828L3.63175 7.34778C3.72948 7.44533 3.86192 7.50012 4 7.50012C4.13808 7.50012 4.27052 7.44533 4.36825 7.34778L7.34775 4.36828C7.4453 4.27055 7.50009 4.13811 7.50009 4.00003C7.50009 3.86195 7.4453 3.72951 7.34775 3.63178M4 7.00903L0.99125 4.00003L4 0.99103L7.009 4.00003L4 7.00903Z" fill="#EC622B"/>
</g>
<defs>
<clipPath id="clip0_3218_12122">
<rect width="8" height="8" fill="white"/>
</clipPath>
</defs>
</svg>
