<svg width="20" height="20" viewBox="0 0 20 20" fill="none" xmlns="http://www.w3.org/2000/svg">
<g clip-path="url(#clip0_10492_1333)">
<mask id="mask0_10492_1333" style="mask-type:luminance" maskUnits="userSpaceOnUse" x="0" y="0" width="20" height="20">
<path d="M20 0H0V20H20V0Z" fill="white"/>
</mask>
<g mask="url(#mask0_10492_1333)">
<path d="M19.7068 1.85592C19.6866 1.74728 19.6238 1.65083 19.5322 1.58856L18.5232 0.900072C18.4311 0.836903 18.317 0.813697 18.2071 0.835379C18.0972 0.857334 18.0014 0.922377 17.9398 1.01574C17.9172 1.05024 15.6642 4.4881 13.1252 8.12282C8.90455 14.1642 7.16559 16.0844 6.45027 16.6313C6.42401 16.6514 6.26014 16.7522 5.63118 16.7522C4.7608 16.7522 3.53669 16.561 2.5531 16.4078C1.85149 16.298 1.29758 16.2119 0.994826 16.2119C0.943846 16.2119 0.899312 16.2144 0.858723 16.2186C0.47846 16.2633 0.167774 16.6002 0.0478427 17.0982C-0.0833779 17.6438 0.0344043 18.4624 0.799187 18.9726C0.945682 19.0708 1.39154 19.3682 3.62701 19.3682C4.46567 19.3682 5.38976 19.3236 6.16278 19.2454C6.54395 19.2076 6.85951 19.1636 7.10031 19.116C7.47386 19.0428 7.6539 18.9635 7.76411 18.8237C10.9816 14.7544 19.5541 2.29416 19.6408 2.16872C19.7031 2.07746 19.7275 1.96488 19.7068 1.85592Z" fill="#5D9CEC"/>
<path d="M12.4556 12.4423C12.6167 12.2165 12.778 11.9894 12.9396 11.7612L11.4345 10.5087C11.2661 10.7424 11.1025 10.9683 10.9444 11.185L12.4556 12.4423Z" fill="#434A54"/>
<path d="M12.0756 9.61124L13.5606 10.8838C13.7224 10.6556 13.8835 10.4273 14.0434 10.2003L12.5596 8.92825C12.3941 9.16265 12.233 9.39032 12.0756 9.61124Z" fill="#434A54"/>
<path opacity="0.2" d="M19.6578 1.72427C19.6524 1.73373 19.6468 1.74291 19.6407 1.75205C19.554 1.87717 10.9815 14.338 7.76397 18.4074C7.6538 18.5465 7.47371 18.6258 7.10017 18.6997C6.85937 18.7474 6.54383 18.7906 6.16263 18.829C5.38961 18.9073 4.46552 18.9518 3.62687 18.9518C1.39139 18.9518 0.945535 18.6539 0.79904 18.5562C0.286932 18.2144 0.0650804 17.734 0.0137875 17.2909C-0.0490686 17.8231 0.119694 18.519 0.79904 18.9725C0.945535 19.0708 1.39139 19.368 3.62687 19.368C4.46552 19.368 5.38961 19.3235 6.16263 19.2454C6.5438 19.2075 6.85937 19.1635 7.10017 19.1159C7.47371 19.0427 7.65376 18.9634 7.76397 18.8236C10.9815 14.7543 19.554 2.29404 19.6407 2.16861C19.703 2.07734 19.7274 1.96476 19.7067 1.85581C19.6981 1.80912 19.681 1.76486 19.6578 1.72427Z" fill="white"/>
<path d="M19.5825 2.54468C19.5019 2.54468 19.4202 2.52088 19.3481 2.47206L17.7673 1.39291C17.5768 1.26321 17.5279 1.00409 17.6574 0.813959C17.7874 0.623827 18.0468 0.574995 18.2366 0.704731L19.8181 1.78388C20.0078 1.91357 20.0567 2.17269 19.9273 2.36279C19.8467 2.48088 19.7155 2.54468 19.5825 2.54468Z" fill="#4A89DC"/>
<path d="M12.9155 3.21048H7.08313C6.85299 3.21048 6.66626 3.39726 6.66626 3.62708V5.29368C6.66626 5.73132 7.05535 6.06428 7.82287 6.2837C8.40975 6.45126 9.18277 6.54372 9.99943 6.54372C10.8158 6.54372 11.5891 6.45126 12.1757 6.2837C12.9435 6.06428 13.3322 5.73132 13.3322 5.29368V3.62704C13.3323 3.39726 13.1456 3.21048 12.9155 3.21048Z" fill="#656D78"/>
<path d="M19.952 17.0983C19.8323 16.6003 19.5217 16.2634 19.1414 16.2187C19.1006 16.2145 19.056 16.2121 19.0053 16.2121C18.7026 16.2121 18.1483 16.2981 17.447 16.4079C16.4638 16.5612 15.2393 16.7523 14.369 16.7523C13.7397 16.7523 13.5761 16.6515 13.5499 16.6314C12.8346 16.0845 11.0956 14.1643 6.87491 8.12295C4.33551 4.48822 2.08264 1.05036 2.06007 1.01587L1.82751 0.660645L0.122467 1.82429L0.359281 2.16884C0.445655 2.29424 9.01819 14.7545 12.2358 18.8238C12.3462 18.9636 12.5263 19.0429 12.8998 19.1162C13.1403 19.1638 13.4559 19.2077 13.8373 19.2462C14.61 19.3237 15.5341 19.3683 16.3728 19.3683C16.9257 19.3683 18.6084 19.3683 19.2006 18.9727C19.9653 18.4625 20.0832 17.6439 19.952 17.0983Z" fill="#ED5564"/>
<path d="M7.54484 12.4423L9.05611 11.185C8.89775 10.9683 8.73446 10.7425 8.566 10.5087L7.06055 11.7612C7.22228 11.9894 7.38369 12.2164 7.54484 12.4423Z" fill="#434A54"/>
<path d="M5.95581 10.2003C6.11602 10.4273 6.27717 10.6556 6.43859 10.8838L7.92361 9.61124C7.76645 9.39029 7.60531 9.16265 7.43991 8.92825L5.95581 10.2003Z" fill="#434A54"/>
<path opacity="0.2" d="M19.2006 18.5563C18.6086 18.9519 16.9258 18.9519 16.3728 18.9519C15.5341 18.9519 14.61 18.9072 13.8373 18.8291C13.4559 18.7907 13.1403 18.7473 12.8998 18.6998C12.5262 18.6259 12.3462 18.5466 12.2358 18.4075C9.01822 14.3381 0.445655 1.87725 0.359281 1.75212L0.317482 1.6911L0.122467 1.82416L0.359281 2.16871C0.445655 2.29411 9.01819 14.7545 12.2358 18.8237C12.3462 18.9635 12.5263 19.0428 12.8998 19.116C13.1403 19.1637 13.4559 19.2076 13.8373 19.246C14.61 19.3236 15.5341 19.3681 16.3728 19.3681C16.9257 19.3681 18.6084 19.3681 19.2006 18.9727C19.8799 18.5191 20.049 17.8233 19.9861 17.2911C19.9349 17.7342 19.7127 18.2145 19.2006 18.5563Z" fill="white"/>
<path d="M0.417119 2.54464C0.284062 2.54464 0.153154 2.48084 0.0725626 2.36275C-0.0571343 2.17262 -0.0083027 1.91354 0.181789 1.78384L1.76296 0.704704C1.95309 0.575007 2.21221 0.623838 2.34191 0.81393C2.4716 1.00406 2.42277 1.26318 2.23264 1.39288L0.651471 2.47198C0.579474 2.52081 0.497984 2.54464 0.417119 2.54464Z" fill="#DA4453"/>
<path d="M12.1757 2.63736C11.5891 2.46982 10.8157 2.37735 9.99943 2.37735C9.18277 2.37735 8.40975 2.46982 7.82287 2.63736C7.05535 2.85648 6.66626 3.18975 6.66626 3.62705C6.66626 4.06469 7.05535 4.39761 7.82287 4.61704C8.40975 4.78458 9.18277 4.87705 9.99943 4.87705C10.8158 4.87705 11.5891 4.78458 12.1757 4.61704C12.9435 4.39761 13.3322 4.06465 13.3322 3.62705C13.3323 3.18971 12.9435 2.85648 12.1757 2.63736Z" fill="#434A54"/>
</g>
</g>
<defs>
<clipPath id="clip0_10492_1333">
<rect width="20" height="20" fill="white"/>
</clipPath>
</defs>
</svg>
