<svg width="16" height="16" viewBox="0 0 16 16" fill="none" xmlns="http://www.w3.org/2000/svg">
<g clip-path="url(#clip0_3218_12108)">
<path d="M8 0C6.41775 0 4.87103 0.469192 3.55544 1.34824C2.23985 2.22729 1.21447 3.47672 0.608967 4.93853C0.00346625 6.40034 -0.15496 8.00887 0.153721 9.56072C0.462403 11.1126 1.22433 12.538 2.34315 13.6569C3.46197 14.7757 4.88743 15.5376 6.43928 15.8463C7.99113 16.155 9.59966 15.9965 11.0615 15.391C12.5233 14.7855 13.7727 13.7602 14.6518 12.4446C15.5308 11.129 16 9.58225 16 8C15.9977 5.87897 15.1541 3.84547 13.6543 2.34568C12.1545 0.845885 10.121 0.00229405 8 0ZM8 14.2867C6.75659 14.2868 5.54106 13.9182 4.50714 13.2275C3.47321 12.5368 2.66733 11.555 2.19141 10.4063C1.71548 9.25754 1.59089 7.99348 1.83339 6.77394C2.07588 5.5544 2.67458 4.43416 3.55376 3.55489C4.43293 2.67562 5.55311 2.0768 6.77262 1.83418C7.99213 1.59155 9.25621 1.71601 10.405 2.19181C11.5538 2.66762 12.5356 3.47339 13.2265 4.50725C13.9173 5.5411 14.286 6.75659 14.286 8C14.2841 9.66655 13.6212 11.2643 12.4427 12.4427C11.2643 13.6212 9.66656 14.2848 8 14.2867Z" fill="#282B30"/>
<path d="M4.60718 7.45209V9.637L7.99988 12.0594L11.3926 9.637V7.45209L7.99988 9.88127L4.60718 7.45209Z" fill="#282B30"/>
<path d="M4.60718 4.05939V6.2443L7.99988 8.66669L11.3926 6.2443V4.05939L7.99988 6.48857L4.60718 4.05939Z" fill="#282B30"/>
</g>
<defs>
<clipPath id="clip0_3218_12108">
<rect width="16" height="16" fill="white"/>
</clipPath>
</defs>
</svg>
