<svg width="20" height="20" viewBox="0 0 20 20" fill="none" xmlns="http://www.w3.org/2000/svg">
<g clip-path="url(#clip0_10492_1269)">
<path d="M10 20C15.5228 20 20 15.5229 20 10C20 4.47716 15.5228 0 10 0C4.47715 0 0 4.47716 0 10C0 15.5229 4.47715 20 10 20Z" fill="#78B22A"/>
<path d="M19.9997 9.99962C19.9997 9.78021 19.9918 9.56271 19.9779 9.34681L15.4451 4.81404L4.52515 15.1541L9.34906 19.978C9.56422 19.9918 9.78102 19.9996 9.99964 19.9996C15.5225 19.9996 19.9997 15.5225 19.9997 9.99962Z" fill="#679C20"/>
<path d="M10 17.5196C14.1529 17.5196 17.5195 14.1529 17.5195 10C17.5195 5.84708 14.1529 2.48047 10 2.48047C5.84708 2.48047 2.48047 5.84708 2.48047 10C2.48047 14.1529 5.84708 17.5196 10 17.5196Z" fill="white"/>
<path d="M10.0001 2.48047C9.99447 2.48047 9.98893 2.48067 9.98331 2.48067V17.5193C9.98888 17.5193 9.99444 17.5194 10.0001 17.5194C14.153 17.5194 17.5195 14.1529 17.5195 9.99996C17.5195 5.84704 14.153 2.48047 10.0001 2.48047Z" fill="#F0F0F0"/>
<path d="M10.0004 6.90247L7.09677 9.01207L8.20583 12.4255H11.7949L12.904 9.01207L10.0004 6.90247Z" fill="#555A66"/>
<path d="M12.9037 9.01207L10.0001 6.90247L9.98331 6.91461V12.4255H11.7946L12.9037 9.01207Z" fill="#414952"/>
<path d="M7.27011 2.99172L10.0002 4.97528L12.7302 2.99176C11.8839 2.6618 10.9633 2.48047 10.0002 2.48047C9.0371 2.48047 8.11644 2.6618 7.27011 2.99172Z" fill="#555A66"/>
<path d="M12.7301 2.99172C11.8838 2.6618 10.9631 2.48047 10.0001 2.48047C9.99447 2.48047 9.98893 2.48067 9.98331 2.48067V4.96309L10.0001 4.97523L12.7301 2.99172Z" fill="#414952"/>
<path d="M14.7526 8.38889L17.5094 10.3919C17.516 10.2621 17.5194 10.1315 17.5194 10.0002C17.5194 8.17553 16.8694 6.50283 15.7885 5.20061L14.7526 8.38889Z" fill="#414952"/>
<path d="M11.9063 17.2753C13.7614 16.7904 15.3371 15.6149 16.3424 14.0399H12.9575L11.9063 17.2753Z" fill="#414952"/>
<path d="M4.21144 5.20061C3.13055 6.50283 2.48047 8.17553 2.48047 10.0002C2.48047 10.1315 2.48391 10.2621 2.49054 10.3919L5.24739 8.38889L4.21144 5.20061Z" fill="#555A66"/>
<path d="M7.04175 14.0399H3.65683C4.6621 15.6149 6.23792 16.7904 8.093 17.2753L7.04175 14.0399Z" fill="#555A66"/>
</g>
<defs>
<clipPath id="clip0_10492_1269">
<rect width="20" height="20" fill="white"/>
</clipPath>
</defs>
</svg>
