<svg width="20" height="20" viewBox="0 0 20 20" fill="none" xmlns="http://www.w3.org/2000/svg">
<g clip-path="url(#clip0_10492_1317)">
<mask id="mask0_10492_1317" style="mask-type:luminance" maskUnits="userSpaceOnUse" x="0" y="0" width="20" height="20">
<path d="M20 0H0V20H20V0Z" fill="white"/>
</mask>
<g mask="url(#mask0_10492_1317)">
<path d="M2.60836 7.74516C1.95986 9.68029 2.73852 11.8681 4.57445 12.9279L6.62371 14.1112L8.67281 15.2943C10.5088 16.3542 12.7928 15.9347 14.1445 14.4055L2.60836 7.74516Z" fill="#F0A65F"/>
<path d="M12.892 13.6824C11.8756 14.9171 10.3867 14.867 8.61284 13.8429L6.17448 12.4351L4.12522 11.252C3.34839 10.8034 2.76154 10.1523 2.39136 9.4045C2.48047 10.8199 3.25395 12.1655 4.57429 12.9279L8.6728 15.2942C10.5086 16.3541 12.7926 15.9345 14.1443 14.4054L12.892 13.6824Z" fill="#E28540"/>
<path d="M14.1448 14.4056C14.3361 14.189 14.5089 13.9504 14.659 13.6906L16.7184 10.1233C18.5819 6.89579 17.4759 2.76874 14.2484 0.905189C11.0208 -0.958215 6.89378 0.147591 5.03038 3.37513L2.97089 6.94233C2.82074 7.20219 2.70051 7.4712 2.60864 7.7451L14.1448 14.4056Z" fill="#EF3535"/>
<path d="M17.051 4.03137C17.2599 5.47761 17.0028 7.00183 16.2154 8.36549L14.1559 11.9327C13.9139 12.3519 13.3779 12.4955 12.9588 12.2535L3.16803 6.60081L2.97089 6.94231C2.82074 7.20216 2.70051 7.47117 2.60864 7.74507L14.1448 14.4056C14.3361 14.189 14.5089 13.9503 14.659 13.6903L16.7184 10.1233C17.8353 8.18864 17.885 5.93111 17.051 4.03137Z" fill="#D33131"/>
<path d="M7.08592 10.3304L2.61631 18.0719C2.37431 18.4911 2.51804 19.027 2.93719 19.269L3.46851 19.5757L3.99967 19.8824C4.41898 20.1245 4.95487 19.9808 5.19687 19.5617L9.66648 11.8203L7.08592 10.3304Z" fill="#F0A65F"/>
<path d="M8.86941 11.3601L4.70665 18.5702C4.58565 18.7797 4.31771 18.8516 4.10805 18.7305L3.1974 18.2046L2.70409 17.92L2.61634 18.0717C2.37434 18.491 2.51793 19.0268 2.93709 19.2688L3.99971 19.8822C4.41888 20.1243 4.95491 19.9806 5.19692 19.5615L9.66638 11.8201L8.86941 11.3601Z" fill="#E28540"/>
<path d="M6.67482 2.98406C6.67482 4.10223 5.76844 5.0086 4.65028 5.0086C3.53211 5.0086 2.62573 4.10223 2.62573 2.98406C2.62573 1.86605 3.53211 0.959671 4.65028 0.959671C5.76844 0.959671 6.67482 1.86605 6.67482 2.98406Z" fill="#FFD432"/>
<path d="M5.45524 1.1263C5.56236 1.37317 5.62202 1.64524 5.62202 1.93135C5.62202 3.04951 4.71565 3.95589 3.59763 3.95589C3.31137 3.95589 3.03932 3.89623 2.79257 3.78911C3.10386 4.50658 3.81827 5.0086 4.65034 5.0086C5.76835 5.0086 6.67473 4.10222 6.67473 2.98405C6.67487 2.15214 6.17286 1.43773 5.45524 1.1263Z" fill="#F4AC03"/>
</g>
</g>
<defs>
<clipPath id="clip0_10492_1317">
<rect width="20" height="20" fill="white"/>
</clipPath>
</defs>
</svg>
