<svg width="20" height="20" viewBox="0 0 20 20" fill="none" xmlns="http://www.w3.org/2000/svg">
<path d="M16.8701 16.8696C20.6639 13.0757 20.6639 6.92473 16.8701 3.13089C13.0763 -0.662954 6.92526 -0.662953 3.13142 3.13089C-0.662418 6.92473 -0.662417 13.0757 3.13142 16.8696C6.92527 20.6634 13.0763 20.6634 16.8701 16.8696Z" fill="#E0E0E2"/>
<path d="M5.81968 14.1793C2.90812 11.2678 1.91323 7.16555 2.83436 3.44C-0.658984 7.2519 -0.560287 13.1756 3.13156 16.8674C6.82341 20.5594 12.7472 20.658 16.559 17.1646C12.8335 18.0858 8.73127 17.091 5.81968 14.1793Z" fill="#D8D7DA"/>
<path d="M11.7404 1.73654C11.4715 4.14849 10.2852 6.51509 8.39984 8.40046C6.51449 10.2858 4.14787 11.4721 1.73592 11.741C1.33954 11.7852 0.949503 11.8038 0.567537 11.7976C0.356058 11.7942 0.196207 11.9884 0.242363 12.1948C0.642506 13.982 1.5374 15.6808 2.92831 17.0717C4.31921 18.4626 6.01795 19.3575 7.80516 19.7576C8.01156 19.8037 8.20582 19.644 8.20238 19.4324C8.1961 19.0505 8.2148 18.6605 8.259 18.264C8.52783 15.8521 9.71421 13.4855 11.5995 11.6001C13.485 9.71472 15.8515 8.52837 18.2635 8.25957C18.6599 8.21537 19.0499 8.1967 19.4319 8.20294C19.6433 8.2064 19.8031 8.01215 19.757 7.80572C19.3569 6.01858 18.462 4.31983 17.0711 2.92892C15.6802 1.53802 13.9814 0.643102 12.1942 0.243044C11.9878 0.196857 11.7936 0.356709 11.797 0.568215C11.8033 0.950153 11.7846 1.34019 11.7404 1.73654Z" fill="#9CDD05"/>
<path d="M3.72969 11.3078C3.0749 11.5201 2.40718 11.6661 1.73591 11.741C1.33953 11.7852 0.949502 11.8039 0.567536 11.7976C0.356057 11.7941 0.196206 11.9884 0.242363 12.1948C0.642533 13.982 1.53745 15.6807 2.92833 17.0717C4.31924 18.4625 6.01797 19.3574 7.80519 19.7576C8.01159 19.8037 8.20585 19.6439 8.20241 19.4323C8.19613 19.0504 8.21483 18.6604 8.25903 18.2639C8.33383 17.5927 8.47993 16.925 8.69218 16.2702C7.65655 15.7433 6.68476 15.0475 5.8186 14.1813C4.95244 13.3152 4.25667 12.3434 3.72969 11.3078Z" fill="#91CC04"/>
<path d="M0.00298207 10.2446C0.00715317 10.4149 0.142947 10.5523 0.312991 10.5618C2.71337 10.6956 5.41757 9.65084 7.53417 7.53423C9.65078 5.41763 10.6955 2.71344 10.5617 0.313059C10.5522 0.142959 10.4149 0.00716618 10.2446 0.00305061C7.60432 -0.0613113 4.9435 0.913543 2.92854 2.9285C0.913585 4.94345 -0.0612973 7.60432 0.00298207 10.2446Z" fill="#9CDD05"/>
<path d="M2.99232 2.86668C2.97111 2.88752 2.9496 2.90776 2.92854 2.92881C0.913589 4.94377 -0.061296 7.60463 0.00298193 10.2449C0.00715294 10.4152 0.142947 10.5526 0.312991 10.5621C1.25663 10.6147 2.24723 10.4843 3.23062 10.1791C2.34544 7.83392 2.2664 5.25416 2.99232 2.86668Z" fill="#91CC04"/>
<path d="M19.9972 9.75533C19.9931 9.58505 19.8573 9.44766 19.6873 9.43815C17.2869 9.30438 14.5826 10.3491 12.4661 12.4658C10.3495 14.5823 9.30472 17.2865 9.4385 19.6869C9.448 19.857 9.58534 19.9928 9.75569 19.9969C12.3959 20.0613 15.0568 19.0864 17.0717 17.0714C19.0866 15.0565 20.0615 12.3956 19.9972 9.75533Z" fill="#9CDD05"/>
<path d="M9.82144 16.7693C9.51624 17.7526 9.38586 18.7432 9.43846 19.6868C9.44796 19.857 9.5853 19.9927 9.75565 19.9969C12.3959 20.0612 15.0568 19.0864 17.0717 17.0714C17.0928 17.0503 17.113 17.0288 17.1338 17.0076C14.7464 17.7335 12.1666 17.6544 9.82144 16.7693Z" fill="#91CC04"/>
<path d="M18.085 12.6079C17.9221 12.5629 17.8275 12.393 17.8732 12.2303C17.9412 11.9887 17.9988 11.7411 18.0442 11.4942C18.0748 11.3279 18.2345 11.2178 18.4007 11.2485C18.567 11.2791 18.6769 11.4387 18.6464 11.605C18.5975 11.8703 18.5356 12.1365 18.4626 12.3961C18.4479 12.4484 18.361 12.6842 18.085 12.6079Z" fill="#91CC04"/>
<path d="M16.2201 16.2198C16.1005 16.3393 15.9066 16.3393 15.7871 16.2198C15.6675 16.1002 15.6675 15.9063 15.7871 15.7868C16.524 15.0499 17.1049 14.1945 17.5138 13.2442C17.5807 13.089 17.7607 13.0171 17.9161 13.084C18.0713 13.1509 18.1431 13.3309 18.0763 13.4862C17.6366 14.508 17.0121 15.4277 16.2201 16.2198Z" fill="#91CC04"/>
<path d="M13.6605 6.17035C13.8523 5.97859 13.8523 5.66768 13.6605 5.47592C13.4687 5.28415 13.1578 5.28415 12.9661 5.47592C12.7743 5.66768 12.7743 5.97858 12.9661 6.17035C13.1578 6.36211 13.4687 6.36211 13.6605 6.17035Z" fill="#91CC04"/>
<path d="M12.1586 9.24957C12.3504 9.05781 12.3504 8.7469 12.1586 8.55513C11.9669 8.36337 11.656 8.36338 11.4642 8.55513C11.2725 8.7469 11.2725 9.05781 11.4642 9.24957C11.656 9.44133 11.9669 9.44133 12.1586 9.24957Z" fill="#91CC04"/>
<path d="M7.7279 4.12445C7.91967 3.93269 7.91967 3.62177 7.7279 3.43001C7.53614 3.23826 7.22524 3.23826 7.03347 3.43001C6.84171 3.62177 6.84171 3.93269 7.03347 4.12445C7.22524 4.3162 7.53614 4.3162 7.7279 4.12445Z" fill="#91CC04"/>
<path d="M14.4602 8.13465C14.4031 8.19178 14.3242 8.22443 14.2434 8.2244C14.1628 8.22413 14.0842 8.1915 14.0273 8.13463C13.9701 8.07747 13.9375 7.99867 13.9372 7.91818C13.9375 7.83769 13.9701 7.75888 14.0273 7.70172C14.0842 7.64482 14.163 7.61225 14.2434 7.61195C14.324 7.61223 14.4031 7.64454 14.4602 7.7017C14.5171 7.75855 14.5494 7.83763 14.5496 7.91818C14.5497 7.99895 14.5171 8.07775 14.4602 8.13465Z" fill="#91CC04"/>
<path d="M9.91101 10.2166C9.85389 10.2737 9.77505 10.3063 9.69426 10.3063C9.61371 10.306 9.53493 10.2734 9.47808 10.2165C9.42092 10.1594 9.38831 10.0806 9.38803 10.0001C9.38831 9.9196 9.42096 9.84076 9.47808 9.78363C9.53495 9.72676 9.61373 9.69417 9.69426 9.69386C9.7748 9.69414 9.85389 9.72649 9.91101 9.78361C9.96786 9.84046 10.0002 9.91954 10.0005 10.0001C10.0005 10.0809 9.96791 10.1597 9.91101 10.2166Z" fill="#91CC04"/>
<path d="M6.69159 6.02732C6.63446 6.08445 6.55564 6.1171 6.47483 6.11707C6.39429 6.1168 6.31551 6.08414 6.25866 6.02729C6.20151 5.97014 6.16889 5.89134 6.16861 5.81085C6.16889 5.73036 6.20154 5.65152 6.25866 5.59439C6.31556 5.53749 6.39432 5.50492 6.47483 5.50462C6.55538 5.5049 6.63446 5.53724 6.69159 5.59436C6.74844 5.65121 6.78078 5.7303 6.78106 5.81085C6.78106 5.89166 6.74849 5.97042 6.69159 6.02732Z" fill="#91CC04"/>
<path d="M5.09167 3.99525C5.03455 4.05238 4.95571 4.08503 4.87492 4.085C4.79437 4.08472 4.71559 4.05208 4.65874 3.99523C4.6016 3.93808 4.56897 3.85927 4.5687 3.77877C4.56897 3.69828 4.6016 3.61948 4.65874 3.56233C4.71565 3.50543 4.79439 3.47286 4.87492 3.47255C4.95547 3.47283 5.03455 3.50517 5.09167 3.5623C5.14852 3.61914 5.18087 3.69823 5.18114 3.77877C5.18111 3.85958 5.14854 3.93838 5.09167 3.99525Z" fill="#91CC04"/>
</svg>
