<svg width="20" height="20" viewBox="0 0 20 20" fill="none" xmlns="http://www.w3.org/2000/svg">
<g clip-path="url(#clip0_10492_1353)">
<mask id="mask0_10492_1353" style="mask-type:luminance" maskUnits="userSpaceOnUse" x="0" y="0" width="20" height="20">
<path d="M20 0H0V20H20V0Z" fill="white"/>
</mask>
<g mask="url(#mask0_10492_1353)">
<path d="M10.0002 19.9988C15.5227 19.9988 19.9996 15.5219 19.9996 9.99941C19.9996 4.47689 15.5227 0 10.0002 0C4.4777 0 0.000823975 4.47689 0.000823975 9.99941C0.000823975 15.5219 4.4777 19.9988 10.0002 19.9988Z" fill="#0071CE"/>
<path d="M10.0002 19.9988C15.5227 19.9988 19.9996 15.5219 19.9996 9.99941C19.9996 4.47689 15.5227 0 10.0002 0C4.4777 0 0.000823975 4.47689 0.000823975 9.99941C0.000823975 15.5219 4.4777 19.9988 10.0002 19.9988Z" fill="#E8E8E8"/>
<path d="M10.0005 0C8.47661 0 7.03271 0.34148 5.74014 0.951178C10.2469 0.623187 14.1174 2.42621 16.1354 5.16062C16.4605 4.42328 16.7095 3.61 16.8627 2.72693C15.0719 1.03655 12.6574 0 10.0005 0Z" fill="#00B3E3"/>
<path d="M14.0341 8.13928C11.7601 5.05428 7.12868 3.1533 1.88507 4.15754C1.13124 5.20295 0.574444 6.39966 0.268951 7.69365C4.45795 6.1546 8.34059 7.5527 10.0007 9.9994C11.3904 9.89839 12.8254 9.25334 14.0341 8.13928Z" fill="#00B3E3"/>
<path d="M18.6604 14.9991C19.4224 13.6793 19.8487 12.2581 19.9669 10.834C17.9976 14.9009 14.5009 17.3513 11.1238 17.7318C11.5999 18.3819 12.1797 19.0043 12.8679 19.5785C15.2271 18.8728 17.332 17.3 18.6604 14.9991Z" fill="#0071CE"/>
<path d="M9.59479 14.4225C13.4035 13.9957 17.3655 10.9352 19.1176 5.89205C18.5892 4.71651 17.8312 3.63592 16.8633 2.7244C16.1016 7.12174 12.9495 9.78517 10.0006 9.99944C9.39316 11.2535 9.23433 12.8188 9.59479 14.4225Z" fill="#0071CE"/>
<path d="M1.34093 14.999C2.10283 16.3188 3.1206 17.3986 4.2949 18.2131C1.75744 14.474 1.38364 10.2207 2.7427 7.10578C1.94167 7.193 1.11276 7.38397 0.271406 7.69283C-0.297013 10.0888 0.0125313 12.6981 1.34093 14.999Z" fill="#0071CE"/>
<path d="M2.74294 7.10601C1.38388 10.2208 1.75772 14.4742 4.29509 18.2132C5.69571 19.1846 7.31931 19.7781 8.99945 19.9486C5.5079 15.9096 4.83862 10.9484 6.37314 7.43643C5.28229 7.09595 4.04966 6.96386 2.74294 7.10601Z" fill="#FFC843"/>
<path d="M6.37309 7.43641C4.83858 10.9484 5.50795 15.9096 8.99941 19.9487C10.2816 20.0787 11.5965 19.9626 12.8698 19.5803C9.44247 16.722 8.71179 12.6605 10.0007 9.99947C9.21839 8.84637 7.94226 7.92609 6.37309 7.43641Z" fill="#0071CE"/>
</g>
</g>
<defs>
<clipPath id="clip0_10492_1353">
<rect width="20" height="20" fill="white"/>
</clipPath>
</defs>
</svg>
