<svg width="32" height="32" viewBox="0 0 32 32" fill="none" xmlns="http://www.w3.org/2000/svg">
<path d="M16 32C24.8366 32 32 24.8366 32 16C32 7.16346 24.8366 0 16 0C7.16346 0 0 7.16346 0 16C0 24.8366 7.16346 32 16 32Z" fill="#E96E32"/>
<path d="M15.9999 27.496C22.349 27.496 27.496 22.349 27.496 15.9999C27.496 9.65073 22.349 4.50372 15.9999 4.50372C9.65073 4.50372 4.50372 9.65073 4.50372 15.9999C4.50372 22.349 9.65073 27.496 15.9999 27.496Z" fill="#E5E8EF"/>
<path d="M25.1191 8.99669C23.1791 7.50675 20.7491 6.61688 18.1143 6.61688C11.7645 6.61688 6.61963 11.7666 6.61963 18.1165C6.61963 20.7515 7.50461 23.1813 8.99456 25.1212C6.26466 23.0163 4.5047 19.7163 4.5047 16.0016C4.5047 9.6517 9.64957 4.50195 15.9992 4.50195C19.7142 4.50195 23.0142 6.26191 25.1191 8.99669Z" fill="#CDD4DF"/>
<path d="M23.2443 18.0025C23.2443 19.7829 21.802 21.225 20.0218 21.225C19.1177 21.225 18.2966 20.8524 17.7169 20.2519C18.0895 21.3008 18.5795 22.212 19.2214 22.9364C19.4213 23.1712 19.2075 23.5021 18.9107 23.4334C17.5513 23.1022 16.1988 23.0951 14.8393 23.4263C14.5425 23.4954 14.3287 23.1642 14.5288 22.9297C15.1706 22.1981 15.6605 21.2941 16.0331 20.2452C15.4534 20.8524 14.6323 21.225 13.7213 21.225C11.948 21.225 10.5057 19.7829 10.5057 18.0025C10.5057 16.222 11.948 14.7799 13.7213 14.7799C13.9906 14.7799 14.2458 14.8143 14.4943 14.8763C13.9698 14.3105 13.6524 13.5446 13.6524 12.7097C13.6524 10.936 15.0947 9.49384 16.875 9.49384C18.6485 9.49384 20.0907 10.936 20.0907 12.7097C20.0907 13.5446 19.7733 14.3105 19.2488 14.8763C19.4973 14.8143 19.7527 14.7799 20.0218 14.7799C21.802 14.7799 23.2443 16.222 23.2443 18.0025Z" fill="#CDD4DF"/>
<path d="M22.3693 17.5333C22.3693 19.3138 20.927 20.7559 19.1468 20.7559C18.2427 20.7559 17.4216 20.3833 16.8419 19.7828C17.2145 20.8317 17.7045 21.7428 18.3464 22.4673C18.5463 22.7021 18.3325 23.033 18.0357 22.9643C16.6763 22.6331 15.3238 22.626 13.9643 22.9572C13.6675 23.0263 13.4537 22.6951 13.6538 22.4605C14.2956 21.729 14.7855 20.825 15.1581 19.7761C14.5784 20.3833 13.7573 20.7559 12.8463 20.7559C11.073 20.7559 9.63068 19.3138 9.63068 17.5333C9.63068 15.7529 11.073 14.3108 12.8463 14.3108C13.1156 14.3108 13.3708 14.3451 13.6193 14.4071C13.0948 13.8414 12.7774 13.0755 12.7774 12.2406C12.7774 10.4669 14.2197 9.02472 16 9.02472C17.7735 9.02472 19.2157 10.4669 19.2157 12.2406C19.2157 13.0755 18.8983 13.8414 18.3738 14.4071C18.6223 14.3451 18.8777 14.3108 19.1468 14.3108C20.927 14.3108 22.3693 15.7529 22.3693 17.5333Z" fill="#E96E32"/>
</svg>
