<svg width="24" height="23" viewBox="0 0 24 23" fill="none" xmlns="http://www.w3.org/2000/svg">
<path d="M11.9387 22.5889C18.1765 22.5889 23.2332 17.5322 23.2332 11.2945C23.2332 5.05671 18.1765 0 11.9387 0C5.70093 0 0.644226 5.05671 0.644226 11.2945C0.644226 17.5322 5.70093 22.5889 11.9387 22.5889Z" fill="#E96E32"/>
<path d="M11.9387 19.4096C16.4206 19.4096 20.0539 15.7763 20.0539 11.2944C20.0539 6.81249 16.4206 3.1792 11.9387 3.1792C7.45684 3.1792 3.82355 6.81249 3.82355 11.2944C3.82355 15.7763 7.45684 19.4096 11.9387 19.4096Z" fill="#E5E8EF"/>
<path d="M18.3759 6.35083C17.0064 5.29907 15.2911 4.67091 13.4311 4.67091C8.94881 4.67091 5.31703 8.30614 5.31703 12.7886C5.31703 14.6486 5.94174 16.3638 6.9935 17.7332C5.06646 16.2473 3.8241 13.9179 3.8241 11.2956C3.8241 6.8132 7.45587 3.17798 11.9381 3.17798C14.5605 3.17798 16.89 4.42034 18.3759 6.35083Z" fill="#CDD4DF"/>
<path d="M17.0524 12.7079C17.0524 13.9647 16.0343 14.9828 14.7776 14.9828C14.1394 14.9828 13.5598 14.7197 13.1505 14.2958C13.4136 15.0363 13.7594 15.6794 14.2125 16.1908C14.3537 16.3566 14.2028 16.5902 13.9932 16.5416C13.0336 16.3078 12.0789 16.3028 11.1193 16.5366C10.9097 16.5854 10.7588 16.3516 10.9001 16.1861C11.3531 15.6697 11.6989 15.0315 11.962 14.2911C11.5528 14.7197 10.9731 14.9828 10.3301 14.9828C9.07825 14.9828 8.06012 13.9647 8.06012 12.7079C8.06012 11.4511 9.07825 10.4331 10.3301 10.4331C10.5201 10.4331 10.7003 10.4574 10.8757 10.5011C10.5055 10.1018 10.2814 9.56113 10.2814 8.97173C10.2814 7.71967 11.2996 6.70166 12.5563 6.70166C13.8082 6.70166 14.8262 7.71967 14.8262 8.97173C14.8262 9.56113 14.6021 10.1018 14.2319 10.5011C14.4073 10.4574 14.5876 10.4331 14.7776 10.4331C16.0343 10.4331 17.0524 11.4511 17.0524 12.7079Z" fill="#CDD4DF"/>
<path d="M16.4348 12.3769C16.4348 13.6337 15.4166 14.6517 14.16 14.6517C13.5218 14.6517 12.9421 14.3886 12.5329 13.9648C12.796 14.7052 13.1418 15.3484 13.5949 15.8598C13.7361 16.0255 13.5852 16.2591 13.3756 16.2106C12.416 15.9768 11.4613 15.9718 10.5017 16.2056C10.2921 16.2544 10.1412 16.0205 10.2825 15.855C10.7355 15.3386 11.0813 14.7005 11.3444 13.96C10.9351 14.3886 10.3555 14.6517 9.71246 14.6517C8.46064 14.6517 7.4425 13.6337 7.4425 12.3769C7.4425 11.1201 8.46064 10.102 9.71246 10.102C9.9025 10.102 10.0827 10.1263 10.2581 10.1701C9.88787 9.77072 9.66381 9.23007 9.66381 8.64068C9.66381 7.38862 10.6819 6.37061 11.9386 6.37061C13.1906 6.37061 14.2086 7.38862 14.2086 8.64068C14.2086 9.23007 13.9845 9.77072 13.6143 10.1701C13.7897 10.1263 13.97 10.102 14.16 10.102C15.4166 10.102 16.4348 11.1201 16.4348 12.3769Z" fill="#E96E32"/>
</svg>
