<svg width="24" height="24" viewBox="0 0 24 24" fill="none" xmlns="http://www.w3.org/2000/svg">
<path fill-rule="evenodd" clip-rule="evenodd" d="M19 11.5C19 12.397 18.272 13.125 17.375 13.125H14.125V16.375C14.125 17.272 13.397 18 12.5 18C11.603 18 10.875 17.272 10.875 16.375V13.125H7.62501C6.728 13.125 6 12.397 6 11.5C6 10.603 6.728 9.875 7.62501 9.875H10.875V6.625C10.875 5.728 11.603 5 12.5 5C13.397 5 14.125 5.728 14.125 6.625V9.875H17.375C18.272 9.875 19 10.603 19 11.5Z" fill="white"/>
</svg>
