<svg width="24" height="24" viewBox="0 0 24 24" fill="none" xmlns="http://www.w3.org/2000/svg">
<g clip-path="url(#clip0_3218_12150)">
<path d="M14.5033 24.0029C15.3058 24.0029 16.0056 23.3032 16.0056 22.5007V18.9923H17.0087C17.6106 18.9923 18.0117 18.591 18.0117 17.9892V7.96875H5.98438V17.9893C5.98438 18.5912 6.3856 18.9924 6.98745 18.9924H7.9906V22.5008C7.9906 23.3032 8.69023 24.003 9.49285 24.003C10.2952 24.003 10.9949 23.3032 10.9949 22.5008V18.9924H13.0012V22.5008C13.0011 23.3032 13.7009 24.0029 14.5033 24.0029Z" fill="white"/>
<path d="M20.5179 17.9893C21.3203 17.9893 22.02 17.2896 22.02 16.4871V9.47036C22.02 8.67214 21.3203 7.96875 20.5179 7.96875C19.7153 7.96875 19.0156 8.67214 19.0156 9.47036V16.4871C19.0156 17.2895 19.7153 17.9893 20.5179 17.9893Z" fill="white"/>
<path d="M3.47865 17.9893C4.28119 17.9893 4.9809 17.2896 4.9809 16.4871V9.47036C4.9809 8.67214 4.28127 7.96875 3.47865 7.96875C2.67619 7.96875 1.97656 8.67214 1.97656 9.47036V16.4871C1.97656 17.2895 2.67619 17.9893 3.47865 17.9893Z" fill="white"/>
<path d="M16.808 0.151362C16.6074 -0.050454 16.3089 -0.050454 16.1083 0.151362L14.763 1.49224L14.7009 1.55422C13.9032 1.15476 13.0088 0.955262 12.0127 0.95334C12.0079 0.95334 12.0031 0.95318 11.9982 0.95318H11.998C11.993 0.95318 11.9883 0.95334 11.9833 0.95334C10.9873 0.955262 10.0929 1.15476 9.29528 1.55422L9.23305 1.49224L7.88777 0.151362C7.68708 -0.050454 7.38868 -0.050454 7.18814 0.151362C6.98745 0.352057 6.98745 0.649895 7.18814 0.85043L8.48954 2.15206C8.07021 2.43204 7.68996 2.77465 7.35929 3.16651C6.56764 4.10487 6.0627 5.3261 5.99326 6.64927C5.99262 6.66305 5.99126 6.67666 5.99062 6.69044C5.98638 6.78054 5.98438 6.87111 5.98438 6.96201H18.0117C18.0117 6.87111 18.0096 6.78054 18.0055 6.69044C18.0048 6.67666 18.0035 6.66305 18.0027 6.64927C17.9334 5.3261 17.4283 4.10479 16.6367 3.16659C16.3061 2.77473 15.9257 2.43212 15.5064 2.15214L16.808 0.85051C17.0087 0.649895 17.0087 0.352057 16.808 0.151362ZM9.49093 5.21062C9.07592 5.21062 8.73948 4.87418 8.73948 4.45917C8.73948 4.04417 9.07592 3.70773 9.49093 3.70773C9.90593 3.70773 10.2424 4.04417 10.2424 4.45917C10.2424 4.87418 9.90593 5.21062 9.49093 5.21062ZM14.5052 5.21062C14.0902 5.21062 13.7537 4.87418 13.7537 4.45917C13.7537 4.04417 14.0902 3.70773 14.5052 3.70773C14.9202 3.70773 15.2566 4.04417 15.2566 4.45917C15.2566 4.87418 14.9202 5.21062 14.5052 5.21062Z" fill="white"/>
</g>
<defs>
<clipPath id="clip0_3218_12150">
<rect width="24" height="24" fill="white"/>
</clipPath>
</defs>
</svg>
