<svg width="18" height="18" viewBox="0 0 18 18" fill="none" xmlns="http://www.w3.org/2000/svg">
<path d="M13.9898 15.85V2.35008C13.9889 1.60477 13.3848 1.00095 12.6397 1H5.61968C4.87453 1.00095 4.27063 1.60477 4.26976 2.35008V3.7C4.12059 3.7 3.99976 3.82091 3.99976 3.97008V5.05C3.99976 5.19917 4.12059 5.32008 4.26976 5.32008V5.86C4.12059 5.86 3.99976 5.98099 3.99976 6.13V7.21C3.99976 7.35918 4.12059 7.48 4.26976 7.48V15.85C4.27063 16.5953 4.87453 17.1991 5.61968 17.2H12.6397C13.3848 17.1991 13.9889 16.5953 13.9898 15.85ZM4.80976 2.35008C4.80976 1.90272 5.1724 1.54 5.61968 1.54H12.6397C13.0871 1.54 13.4497 1.90272 13.4497 2.35008V3.16H4.80976V2.35008ZM4.80976 7.21V3.7H13.4497V14.5001H4.80976V7.21ZM8.05675 16.6601H5.61968C5.1724 16.6601 4.80976 16.2973 4.80976 15.85V15.0401H8.05675C7.68744 15.517 7.68744 16.1832 8.05675 16.6601ZM9.1297 16.6601C8.68229 16.6601 8.31977 16.2973 8.31977 15.85C8.31977 15.4027 8.68229 15.0401 9.1297 15.0401C9.57711 15.0401 9.93977 15.4027 9.93977 15.85C9.93977 16.2973 9.57711 16.6601 9.1297 16.6601ZM10.2026 15.0401H13.4497V15.85C13.4497 16.2973 13.0871 16.6601 12.6397 16.6601H10.2026C10.5719 16.1832 10.5719 15.517 10.2026 15.0401Z" fill="#838588"/>
<path d="M9.40101 2.35016C9.40101 2.49917 9.2802 2.62008 9.13101 2.62008C8.98197 2.62008 8.86108 2.49917 8.86108 2.35016C8.86108 2.20099 8.98197 2.08008 9.13101 2.08008C9.2802 2.08008 9.40101 2.20099 9.40101 2.35016Z" fill="#838588"/>
<path d="M11.4361 8.95806L10.9866 8.87706C10.8879 8.53066 10.572 8.29141 10.2119 8.29004H8.05198C7.69186 8.29119 7.3761 8.53045 7.27736 8.87655L6.82762 8.95762C6.61637 8.99578 6.42872 9.11638 6.30631 9.293C6.1839 9.46961 6.13647 9.68749 6.17488 9.89902L6.78297 13.258C6.8566 13.6648 7.21077 13.9603 7.62432 13.96H10.6397C11.053 13.9603 11.4072 13.6647 11.481 13.258L12.0889 9.89917C12.1685 9.4591 11.8763 9.03762 11.4361 8.95806ZM7.24189 12.7603L6.7064 9.80211C6.6798 9.65588 6.77647 9.51555 6.92248 9.48826L7.24189 9.43189V12.7603ZM8.05198 13.4201C7.90287 13.4201 7.78184 13.2992 7.78184 13.15V11.9647L8.65505 13.4201H8.05198ZM10.2119 13.4201H9.28477L7.78184 10.9154V9.68108L10.3774 13.3579C10.3311 13.3971 10.2725 13.419 10.2119 13.4201ZM10.482 12.5691L7.92317 8.94438C7.90928 8.92724 7.89337 8.91219 7.87558 8.89945C7.92397 8.85546 7.98675 8.83076 8.05198 8.83004H8.99691L10.482 10.81V12.5691ZM10.482 9.10853V9.91004L9.67191 8.83004H10.2119C10.3611 8.83004 10.482 8.95093 10.482 9.10004V9.10853ZM11.0219 12.7603V9.43189L11.3402 9.48942C11.4863 9.51678 11.5829 9.65696 11.5563 9.80319L11.0219 12.7603Z" fill="#838588"/>
<path d="M8.59108 6.94007C8.62729 6.94007 8.65948 6.93603 8.69303 6.93302C8.58337 7.07087 8.43253 7.17009 8.26247 7.21633C8.12761 7.2457 8.03661 7.37213 8.05173 7.50951C8.06677 7.64674 8.18291 7.75057 8.32122 7.74999C8.34095 7.74999 8.36061 7.74783 8.38005 7.7438C8.67906 7.66813 8.94381 7.49338 9.13108 7.24824C9.31864 7.49345 9.58338 7.66813 9.88261 7.7438C10.0281 7.77685 10.1728 7.68548 10.2058 7.53989C10.2387 7.39438 10.1474 7.24982 10.0018 7.2168C9.83128 7.17072 9.68001 7.07143 9.56992 6.93326C9.60318 6.93603 9.63522 6.94007 9.67137 6.94007C10.0408 6.94007 10.4814 6.79106 10.4814 6.0809C10.4814 5.67907 10.1723 5.42791 9.89975 5.20684C9.59022 4.95498 9.40108 4.78268 9.40108 4.51007C9.40108 4.36082 9.28026 4.23999 9.13108 4.23999C8.98211 4.23999 8.86122 4.36082 8.86122 4.51007C8.86122 4.78268 8.67208 4.95498 8.36277 5.20684C8.09032 5.42791 7.78101 5.67907 7.78101 6.0809C7.78101 6.79106 8.22179 6.94007 8.59108 6.94007ZM8.70333 5.62626C8.85856 5.50741 9.00198 5.37375 9.13108 5.22695C9.26025 5.37375 9.40367 5.50741 9.55912 5.62626C9.79693 5.8193 9.94122 5.94582 9.94122 6.0809C9.94122 6.322 9.92041 6.40007 9.67108 6.40007C9.50512 6.40007 9.40929 6.35359 9.40108 6.26927C9.40108 6.12025 9.28026 5.99935 9.13108 5.99935C8.98211 5.99935 8.86122 6.12025 8.86122 6.26927C8.85301 6.35359 8.75725 6.40007 8.59108 6.40007C8.34196 6.40007 8.32122 6.322 8.32122 6.0809C8.32122 5.94582 8.46529 5.8193 8.70333 5.62626Z" fill="#838588"/>
</svg>
