<svg width="18" height="18" viewBox="0 0 18 18" fill="none" xmlns="http://www.w3.org/2000/svg">
<mask id="mask0_9554_17640" style="mask-type:luminance" maskUnits="userSpaceOnUse" x="-1" y="0" width="19" height="18">
<path d="M17.2798 0H-0.000244141V17.28H17.2798V0Z" fill="white"/>
</mask>
<g mask="url(#mask0_9554_17640)">
<path d="M5.13691 5.18452C4.47323 5.10146 4.29342 5.02465 4.29342 4.64238C4.29342 4.26984 4.76706 4.10238 5.10342 4.10238C5.42734 4.06778 5.74651 4.20135 5.94912 4.45663C6.02379 4.58292 6.18564 4.62654 6.31367 4.55489C6.44162 4.48307 6.48889 4.32218 6.41992 4.19248C6.18128 3.84164 5.79647 3.61773 5.37342 3.58368V3.29238C5.37342 3.14328 5.25259 3.02246 5.10342 3.02246C4.9544 3.02246 4.8335 3.14328 4.8335 3.29238V3.58431C4.27109 3.67307 3.75342 4.03721 3.75342 4.64238C3.75342 5.55571 4.54592 5.65492 5.07 5.72016C5.73368 5.8033 5.9135 5.88003 5.9135 6.26238C5.9135 6.60562 5.61808 6.80237 5.10342 6.80237C4.79438 6.83199 4.48384 6.76524 4.21432 6.61148C4.10838 6.50918 3.94004 6.51068 3.83592 6.61464C3.73172 6.71893 3.7303 6.88718 3.83252 6.99328C3.88446 7.04506 4.1566 7.27946 4.8335 7.33094V7.61239C4.8335 7.7615 4.9544 7.88232 5.10342 7.88232C5.25259 7.88232 5.37342 7.7615 5.37342 7.61239V7.32201C6.16077 7.22488 6.4535 6.71188 6.4535 6.26238C6.4535 5.34897 5.66099 5.24992 5.13691 5.18452Z" fill="#838588"/>
<path d="M5.10343 1.94263C3.16505 1.94263 1.59351 3.51401 1.59351 5.45239C1.59351 7.39094 3.16505 8.96234 5.10343 8.96234C7.04188 8.96234 8.61336 7.39094 8.61336 5.45239C8.6112 3.51496 7.04101 1.94477 5.10343 1.94263ZM5.10343 8.42234C3.46324 8.42234 2.13343 7.09274 2.13343 5.45239C2.13343 3.81219 3.46324 2.48263 5.10343 2.48263C6.74369 2.48263 8.07343 3.81219 8.07343 5.45239C8.07142 7.09187 6.7429 8.42047 5.10343 8.42234Z" fill="#838588"/>
<path d="M12.9334 9.50241C11.9303 9.4996 10.9676 9.89812 10.2603 10.6094C10.0421 10.8293 9.85168 11.075 9.69336 11.3411V5.45246C9.69336 2.91756 7.63826 0.862549 5.10335 0.862549C2.56844 0.862549 0.513428 2.91756 0.513428 5.45246V16.2523C0.513428 16.6996 0.876063 17.0623 1.32343 17.0623H8.88336C9.33062 17.0623 9.69336 16.6996 9.69336 16.2523V15.2234C9.85168 15.4893 10.0421 15.7351 10.2603 15.955C11.47 17.1649 13.3414 17.4112 14.823 16.5559C16.3046 15.7007 17.0271 13.9567 16.5843 12.3041C16.1417 10.6516 14.6441 9.50241 12.9334 9.50241ZM9.15328 16.2523C9.15328 16.4014 9.03247 16.5222 8.88336 16.5222H1.32343C1.17433 16.5222 1.05343 16.4014 1.05343 16.2523V14.3624H3.23496C3.36846 15.2916 4.16452 15.9816 5.10335 15.9816C6.04217 15.9816 6.83823 15.2916 6.97173 14.3624H9.15328V16.2523ZM6.42634 14.3624C6.29863 14.9915 5.74541 15.4436 5.10335 15.4436C4.46144 15.4436 3.90822 14.9915 3.78043 14.3624H6.42634ZM3.78043 13.8224C3.90822 13.1931 4.46144 12.741 5.10335 12.741C5.74541 12.741 6.29863 13.1931 6.42634 13.8224H3.78043ZM9.15328 13.8224H6.97173C6.83823 12.893 6.04217 12.2032 5.10335 12.2032C4.16452 12.2032 3.36846 12.893 3.23496 13.8224H1.05343V7.61255C1.05636 7.61824 1.05984 7.62328 1.06293 7.62897C1.07156 7.64517 1.08154 7.66057 1.08993 7.67634C1.14575 7.77714 1.20569 7.87492 1.26887 7.97082C1.28803 8.00005 1.30751 8.029 1.32723 8.05765C1.40094 8.1658 1.47759 8.26854 1.5597 8.36812L1.56294 8.37251C1.64632 8.47345 1.73516 8.56936 1.827 8.66274C1.85099 8.68773 1.87578 8.71163 1.90072 8.73597C1.98156 8.81481 2.06454 8.89055 2.151 8.96356C2.16621 8.97659 2.18062 8.99056 2.19605 9.00294C2.29654 9.08394 2.40105 9.16257 2.5081 9.23615C2.53518 9.25487 2.56218 9.27237 2.59061 9.29015C2.68055 9.34912 2.77232 9.40485 2.86575 9.45762C2.89077 9.47159 2.9154 9.48685 2.94097 9.50053C3.05602 9.56209 3.17368 9.61883 3.29419 9.67067C3.32119 9.68205 3.34811 9.69205 3.37519 9.70278C3.47559 9.74382 3.57773 9.78119 3.68161 9.81517C3.71368 9.82561 3.74582 9.83677 3.77861 9.84671C3.906 9.88494 4.03506 9.91936 4.1665 9.94657C4.18598 9.95068 4.20593 9.95349 4.22557 9.95709C4.34117 9.97962 4.45803 9.99719 4.57665 10.0111C4.61307 10.0153 4.64949 10.0193 4.68631 10.0227C4.82424 10.0352 4.96296 10.0437 5.10421 10.0437C5.24531 10.0437 5.38411 10.0352 5.52204 10.0227C5.55878 10.0193 5.59528 10.0153 5.63171 10.0111C5.75 9.99741 5.86694 9.97984 5.98279 9.95709C6.0025 9.95349 6.02237 9.95068 6.04201 9.94657C6.17329 9.91957 6.30275 9.88494 6.4299 9.84671C6.46253 9.83677 6.4946 9.82561 6.52675 9.81517C6.63063 9.78148 6.73285 9.74404 6.83316 9.70278C6.86024 9.69205 6.88716 9.68205 6.91424 9.67067C7.03499 9.61883 7.15265 9.56209 7.26739 9.50053C7.29302 9.48685 7.31757 9.47159 7.34284 9.45762C7.43673 9.40513 7.52839 9.34926 7.61788 9.29015C7.64474 9.27215 7.67318 9.25458 7.69881 9.23615C7.80681 9.16257 7.91056 9.08495 8.01093 9.00294C8.02634 8.98991 8.04096 8.97601 8.056 8.96356C8.1424 8.89055 8.22564 8.81481 8.30628 8.73597C8.33112 8.71163 8.35603 8.68773 8.38008 8.66274C8.4718 8.56936 8.56072 8.47374 8.64417 8.37251L8.64734 8.36812C8.72841 8.26854 8.8061 8.16436 8.87976 8.05765C8.89948 8.029 8.91892 8.00005 8.93808 7.97082C9.00122 7.87492 9.0612 7.77714 9.11707 7.67634C9.12592 7.66057 9.13593 7.64517 9.14414 7.62897C9.14709 7.62328 9.15055 7.61824 9.1535 7.61255L9.15328 13.8224ZM5.10335 9.50241C2.8667 9.50241 1.05343 7.6893 1.05343 5.45246C1.05343 3.21574 2.8667 1.40255 5.10335 1.40255C7.34004 1.40255 9.15328 3.21574 9.15328 5.45246C9.15076 7.68815 7.33903 9.49988 5.10335 9.50241ZM12.6402 10.0568C12.7372 10.0481 12.8346 10.0425 12.9334 10.0425C13.793 10.04 14.6179 10.3817 15.224 10.9914C15.278 11.0454 15.327 11.1025 15.3768 11.1594C14.5018 11.0688 13.6212 11.2632 12.8657 11.7135C12.6621 11.1863 12.5849 10.6191 12.6402 10.0568ZM10.6423 10.9914C11.0444 10.5888 11.5461 10.2999 12.0962 10.1544C12.0524 10.7955 12.1601 11.4379 12.4108 12.0296C12.2949 12.1215 12.1842 12.2195 12.0792 12.3237C11.9415 12.4616 11.8136 12.6093 11.697 12.7656C11.1009 12.5102 10.4525 12.4003 9.8056 12.4455C9.95097 11.8953 10.2397 11.3935 10.6423 10.9914ZM10.941 15.8343C10.1498 15.2248 9.68846 14.281 9.69336 13.2825C9.69336 13.1838 9.69897 13.0863 9.70768 12.9894C10.2818 12.9327 10.8613 13.0144 11.3975 13.2278C10.9572 14.0208 10.7965 14.9389 10.941 15.8343ZM13.2263 16.5093C13.1293 16.5179 13.0318 16.5236 12.9334 16.5236C12.4676 16.5231 12.0077 16.4217 11.5849 16.2266C11.3018 15.3077 11.4077 14.3128 11.878 13.4741C12.0523 13.5831 12.2141 13.7107 12.3605 13.855C13.0282 14.5672 13.3452 15.539 13.2263 16.5081V16.5093ZM15.224 15.5747C14.8221 15.9773 14.3204 16.2661 13.7702 16.4117C13.8631 15.3309 13.4891 14.2619 12.7423 13.4749C12.5711 13.3062 12.3823 13.1562 12.1791 13.0278C12.2666 12.9154 12.3608 12.8084 12.461 12.7072C12.5276 12.6405 12.5973 12.578 12.6686 12.5183C12.7988 12.7263 12.9516 12.9194 13.1242 13.0938C13.8413 13.7821 14.8031 14.1567 15.7971 14.135C15.8842 14.135 15.9728 14.1275 16.0608 14.1223C15.9149 14.6714 15.6262 15.172 15.224 15.5734V15.5747ZM16.1731 13.2825C16.1731 13.3809 16.1675 13.4785 16.1587 13.5752C15.19 13.6943 14.2181 13.3773 13.5059 12.7098C13.3533 12.5557 13.2191 12.3846 13.1057 12.1997C13.9133 11.7039 14.886 11.553 15.8057 11.7807C16.0482 12.2439 16.1743 12.7595 16.1731 13.2825Z" fill="#838588"/>
<path d="M16.7 1.77402C16.6717 1.68367 16.598 1.61471 16.5061 1.59238L15.9121 1.4478L15.5834 0.977873C15.5304 0.909783 15.4488 0.869873 15.3624 0.869873C15.276 0.869873 15.1944 0.909783 15.1413 0.977873L14.8119 1.4478L14.2179 1.59238C14.1258 1.61463 14.0522 1.68352 14.0238 1.77394C13.9956 1.86428 14.0165 1.96286 14.0793 2.0338L14.4574 2.46066L14.4255 3.0066C14.4203 3.09702 14.4606 3.18403 14.5332 3.23819C14.6056 3.29259 14.7004 3.30692 14.7857 3.2766L15.3624 3.07136L15.939 3.27675C16.0245 3.30724 16.1193 3.2929 16.1917 3.23851C16.2642 3.18419 16.3045 3.09718 16.2994 3.00691L16.2666 2.46089L16.6447 2.03404C16.7075 1.96318 16.7284 1.86436 16.7 1.77402ZM15.7879 2.18582C15.7406 2.23943 15.7167 2.30966 15.7207 2.381L15.7359 2.63097L15.4531 2.53034C15.3945 2.50911 15.3304 2.50911 15.2717 2.53034L14.989 2.63097L15.0041 2.381C15.0083 2.30966 14.9841 2.23943 14.937 2.18582L14.7816 2.01084L15.0384 1.94813C15.1024 1.93261 15.1583 1.89413 15.1957 1.84021L15.3624 1.60307L15.529 1.84124C15.5665 1.89524 15.6226 1.93364 15.6865 1.94932L15.9432 2.01195L15.7879 2.18582Z" fill="#838588"/>
<path d="M13.7321 6.06422C13.7037 5.97388 13.6303 5.90491 13.5381 5.8825L12.9442 5.73832L12.6148 5.26831C12.5616 5.20006 12.48 5.16016 12.3937 5.16016C12.3073 5.16016 12.2256 5.20006 12.1726 5.26831L11.8431 5.73832L11.2491 5.8825C11.1572 5.90475 11.0835 5.97372 11.0552 6.06406C11.0267 6.15448 11.0479 6.25306 11.1107 6.32393L11.4885 6.75102L11.4559 7.29694C11.4507 7.38744 11.4911 7.47449 11.5636 7.52863C11.6359 7.58292 11.7308 7.59739 11.8161 7.56701L12.3945 7.36188L12.9712 7.56722C13.0564 7.59768 13.1513 7.58335 13.2237 7.52892C13.2961 7.47463 13.3366 7.38758 13.3313 7.2973L13.2986 6.75102L13.6767 6.32393C13.7393 6.25306 13.7604 6.15448 13.7321 6.06422ZM12.8199 6.4765C12.7726 6.53011 12.7483 6.60026 12.7527 6.67168L12.7679 6.92172L12.4852 6.82101C12.4265 6.79971 12.3623 6.79971 12.3037 6.82101L12.021 6.92172L12.0362 6.67168C12.0406 6.60026 12.0163 6.53011 11.969 6.4765L11.8138 6.30151L12.0705 6.2381C12.1343 6.22242 12.1904 6.18402 12.228 6.1301L12.3945 5.89351L12.561 6.13168C12.5986 6.18568 12.6545 6.22408 12.7185 6.23968L12.9752 6.30239L12.8199 6.4765Z" fill="#838588"/>
</g>
</svg>
