<svg width="18" height="18" viewBox="0 0 18 18" fill="none" xmlns="http://www.w3.org/2000/svg">
<path d="M10.1533 14.1304C10.2268 14.1304 10.297 14.1006 10.348 14.0477C10.7729 13.6068 11.0644 13.0547 11.1886 12.4548C11.2084 12.3605 11.1762 12.2627 11.1042 12.1986C11.0323 12.1343 10.9317 12.1133 10.8399 12.1434C10.7483 12.1736 10.6797 12.2503 10.6601 12.3448C10.5562 12.8452 10.313 13.3059 9.95807 13.6739C9.8829 13.7519 9.86181 13.8672 9.90407 13.9668C9.94641 14.0665 10.0443 14.1312 10.1525 14.1312L10.1533 14.1304Z" fill="#838588"/>
<path d="M6.54527 8.91351C6.41256 8.98126 6.35998 9.14383 6.42784 9.27675C6.49561 9.40937 6.65833 9.46215 6.79103 9.39425C7.17069 9.19963 7.59138 9.09876 8.01805 9.10006C8.16709 9.10006 8.28798 8.9791 8.28798 8.83006C8.28798 8.68102 8.16709 8.56006 8.01805 8.56006C7.50621 8.5602 7.00157 8.68123 6.54527 8.91351Z" fill="#838588"/>
<path d="M5.67425 9.95385C5.61431 9.91475 5.54122 9.90093 5.47123 9.91569C5.40116 9.93059 5.33972 9.97242 5.30068 10.0324C5.17954 10.2179 5.0778 10.4152 4.99711 10.6215C4.97075 10.6883 4.97209 10.763 5.00091 10.8289C5.02965 10.8948 5.08357 10.9464 5.15048 10.9725C5.18191 10.9842 5.21525 10.99 5.24874 10.9898C5.35998 10.9898 5.45999 10.9217 5.50037 10.8179C5.56743 10.6462 5.65215 10.4816 5.75287 10.3272C5.83419 10.2025 5.79895 10.0353 5.67425 9.95385Z" fill="#838588"/>
<path d="M8.28759 9.91021C8.28759 9.7611 8.1667 9.64014 8.01766 9.64014C7.8684 9.64014 7.74759 9.7611 7.74759 9.91021V10.2409C7.19419 10.3458 6.66781 10.7606 6.66781 11.3224C6.66781 12.2714 7.45563 12.392 7.97676 12.4715C8.59431 12.5664 8.82744 12.6438 8.82744 13.0874C8.82744 13.2891 8.47356 13.5237 8.01766 13.5237C7.68869 13.5096 7.37009 13.4052 7.0964 13.2221C6.97589 13.1344 6.80701 13.1612 6.71927 13.2818C6.6317 13.4024 6.65838 13.5713 6.77898 13.659C7.07004 13.8558 7.40076 13.9866 7.74759 14.0423V14.4996C7.74759 14.6487 7.8684 14.7696 8.01766 14.7696C8.1667 14.7696 8.28759 14.6487 8.28759 14.4996V14.0439C8.9029 13.9532 9.36744 13.5579 9.36744 13.0874C9.36744 12.1385 8.57969 12.0177 8.05834 11.9382C7.44101 11.8434 7.20766 11.7659 7.20766 11.3224C7.20766 11.0073 7.65075 10.7538 8.01766 10.7538C8.34087 10.7192 8.65968 10.8514 8.86359 11.1048C8.93897 11.2307 9.10083 11.2736 9.22848 11.2013C9.35599 11.129 9.40258 10.968 9.33339 10.8388C9.09406 10.4896 8.70965 10.2672 8.28759 10.2341V9.91021Z" fill="#838588"/>
<path d="M5.31607 1C3.32813 1.00158 1.59791 2.36006 1.12449 4.29091C0.650927 6.22169 1.55657 8.22637 3.31838 9.14733C2.25066 11.0338 2.4155 13.376 3.737 15.0939C5.05842 16.8121 7.27991 17.5725 9.37698 17.0246C11.4742 16.4766 13.0397 14.7267 13.3517 12.5817C14.8681 11.9951 15.926 10.6063 16.0889 8.98857C16.2516 7.37109 15.4917 5.79919 14.1228 4.92229C12.7537 4.04522 11.0082 4.01205 9.60666 4.83606C9.35862 2.65302 7.51312 1.00309 5.31607 1ZM7.7883 2.46568C7.92503 2.58247 8.05341 2.70884 8.17242 2.8436L7.7878 3.22992C7.67109 3.09231 7.54329 2.96458 7.40577 2.84796L7.7883 2.46568ZM11.7953 11.7987C11.7953 13.8861 10.1032 15.5784 8.0159 15.5784C5.92843 15.5784 4.23623 13.8861 4.23623 11.7987C4.23623 9.71152 5.92843 8.0193 8.0159 8.0193C10.1022 8.02153 11.7932 9.71238 11.7953 11.7987ZM8.82568 7.55814V7.01823C8.93001 7.03541 9.03441 7.0522 9.13593 7.07595C9.15558 7.08054 9.17509 7.08617 9.19489 7.09107C9.27582 7.11079 9.35301 7.13597 9.43156 7.15933C9.49823 7.17983 9.56656 7.19899 9.63114 7.22228L9.66693 7.2355C10.0784 7.38549 10.4675 7.5909 10.8235 7.84585L10.442 8.22738C9.95485 7.89575 9.4047 7.66787 8.82568 7.55814ZM11.2507 8.94601C11.1314 8.81094 11.0038 8.68328 10.8688 8.56405L11.2465 8.18613C11.3807 8.30644 11.508 8.43424 11.6281 8.56852L11.2507 8.94601ZM11.9683 8.99173C12.0864 9.15582 12.194 9.32718 12.2908 9.50459C12.3067 9.53461 12.3219 9.56507 12.3373 9.59552C12.3779 9.67437 12.4183 9.75371 12.454 9.83478C12.5044 9.94883 12.5516 10.0645 12.5931 10.1828C12.5966 10.1928 12.6009 10.2022 12.604 10.2121C12.6359 10.3026 12.6642 10.3947 12.6906 10.4873C12.7039 10.5345 12.7155 10.5821 12.7274 10.6298C12.748 10.7132 12.7692 10.7963 12.7857 10.8814C12.7924 10.9165 12.7962 10.9529 12.8021 10.9894H12.2565C12.1468 10.4106 11.9189 9.86049 11.5874 9.37333L11.9683 8.99173ZM5.31607 6.93937C4.4215 6.93937 3.69638 6.21409 3.69638 5.3196C3.69638 4.42504 4.4215 3.69968 5.31607 3.69968C6.21071 3.69968 6.93607 4.42504 6.93607 5.3196C6.93504 6.21369 6.21031 6.93849 5.31607 6.93937ZM7.20589 7.01443V7.55814C6.62711 7.66794 6.07706 7.89575 5.58987 8.22738L5.20466 7.8424C5.21005 7.83837 5.21512 7.83397 5.22081 7.83023C5.24378 7.8141 5.26595 7.79574 5.28915 7.77969L5.32478 7.75578C5.41575 7.69494 5.51029 7.63965 5.60531 7.58514C5.6407 7.56491 5.67443 7.54201 5.71006 7.52286C5.79652 7.47577 5.88655 7.43581 5.97626 7.39434C6.02401 7.37217 6.07072 7.3469 6.11926 7.32616L6.1495 7.31325C6.19764 7.29338 6.24776 7.27794 6.2967 7.25925C6.38973 7.2241 6.48214 7.18712 6.57754 7.15782L6.58507 7.15529C6.78871 7.09471 6.99609 7.0476 7.20589 7.01443ZM4.78114 8.94601L4.39831 8.5642C4.447 8.51034 4.49466 8.45411 4.54589 8.40234C4.57289 8.37527 4.59989 8.34834 4.62531 8.32357C4.67527 8.27454 4.72817 8.22918 4.78027 8.1826L5.16199 8.5642C5.02715 8.6835 4.89998 8.81101 4.78114 8.94601ZM8.28582 7.49305C8.19611 7.48736 8.10705 7.47937 8.0159 7.47937C7.92453 7.47937 7.83546 7.48736 7.74582 7.49305V6.95497C7.81746 6.95101 7.88845 6.94309 7.96189 6.9423C7.98018 6.9423 7.99768 6.93968 8.0159 6.93968C8.06493 6.93968 8.11281 6.94562 8.16155 6.94689C8.17458 6.94689 8.18862 6.94879 8.20029 6.94935C8.22909 6.94935 8.25688 6.95497 8.28582 6.9567V7.49305ZM7.78549 6.40641C7.69564 6.41022 7.60657 6.41639 7.51751 6.42478C7.48857 6.42732 7.45941 6.42938 7.43061 6.43262C7.33283 6.44307 7.23577 6.45646 7.13932 6.47268C7.64243 5.67662 7.57129 4.64635 6.96386 3.92677C6.35632 3.20735 5.35249 2.9649 4.48342 3.32746C3.61443 3.69019 3.08077 4.57445 3.16494 5.51225C3.24903 6.45012 3.93162 7.2252 4.85137 7.42746C4.80624 7.46044 4.76055 7.4919 4.71629 7.52632C4.70955 7.53129 4.70323 7.53712 4.69681 7.54223C4.66609 7.56621 4.63639 7.59198 4.60631 7.61653C4.59182 7.62827 4.57748 7.64001 4.56355 7.65189C4.50765 7.69854 4.45278 7.74599 4.39878 7.79495C4.38208 7.81029 4.36339 7.82375 4.34676 7.83916C3.0742 7.34956 2.36649 5.98795 2.69699 4.66511C3.02748 3.34235 4.2926 2.47352 5.64585 2.64011C6.99918 2.80654 8.0159 3.95599 8.0159 5.3196C8.01647 5.69404 7.93799 6.06444 7.78549 6.40641ZM6.12607 1.62995C6.56171 1.72528 6.97692 1.89734 7.35256 2.13804L6.9584 2.53179C6.69845 2.37835 6.41832 2.26212 6.12607 2.18657V1.62995ZM5.04623 1.55362C5.13578 1.54721 5.22493 1.54 5.31607 1.54C5.40744 1.54 5.49651 1.54705 5.58607 1.55346V2.09338C5.49683 2.0861 5.40744 2.07984 5.31607 2.07984C5.22493 2.07984 5.13554 2.0861 5.04623 2.0937V1.55362ZM4.50623 1.62955V2.18657C4.21398 2.26212 3.93384 2.37835 3.6739 2.53179L3.28148 2.13962C3.65616 1.89813 4.0709 1.72552 4.50623 1.62955ZM2.84482 2.46647L3.22661 2.84796C3.08884 2.96458 2.96113 3.09231 2.84458 3.22992L2.4631 2.84828C2.58107 2.71201 2.70871 2.58437 2.84482 2.46647ZM2.13617 3.28479L2.52841 3.67736C2.37536 3.93738 2.2596 4.21751 2.18454 4.50968H1.62618C1.72198 4.07428 1.89475 3.65954 2.13617 3.28479ZM1.53662 5.3196C1.53662 5.22831 1.54391 5.13924 1.55032 5.04952H2.09024C2.08272 5.13892 2.07654 5.22831 2.07654 5.3196C2.07654 5.41082 2.08066 5.50045 2.08795 5.58952H1.54636C1.54003 5.50013 1.53662 5.40995 1.53662 5.3196ZM2.13458 7.35582C1.89364 6.98038 1.72111 6.56525 1.62507 6.12945H2.17939C2.25461 6.42336 2.37093 6.70516 2.52485 6.96637L2.13458 7.35582ZM2.84347 8.17396C2.70721 8.05609 2.57956 7.92865 2.46151 7.79243L2.8411 7.41263C2.95748 7.55037 3.08521 7.67809 3.22313 7.79437L2.84347 8.17396ZM3.28061 8.50033L3.67128 8.10966C3.761 8.16381 3.85427 8.21003 3.94952 8.25445C3.93558 8.27058 3.9226 8.28721 3.90803 8.30349C3.87936 8.33697 3.85054 8.37009 3.82275 8.40392C3.74817 8.49652 3.67564 8.59127 3.60667 8.68933C3.49487 8.63181 3.386 8.56888 3.28061 8.50033ZM3.94525 9.15316C3.98095 9.09916 4.01793 9.04516 4.05546 8.99296L4.05942 8.98756L4.44446 9.37283C4.11287 9.85991 3.88499 10.4099 3.77517 10.9889H3.22954C3.33944 10.3343 3.58292 9.70936 3.94525 9.15316ZM3.15638 11.7987C3.15638 11.7076 3.16502 11.6187 3.17024 11.5288H3.71024C3.70446 11.6184 3.69638 11.7076 3.69638 11.7987C3.69638 11.8901 3.70446 11.9792 3.71024 12.0688H3.17024C3.16502 11.9788 3.15638 11.8901 3.15638 11.7987ZM4.05942 14.61C3.63486 14.0143 3.35101 13.33 3.22954 12.6087H3.77517C3.88499 13.1876 4.11287 13.7377 4.44446 14.2248L4.05942 14.61ZM4.78137 15.4164C4.64669 15.2958 4.51873 15.168 4.39831 15.0333L4.78003 14.6516C4.89927 14.7867 5.02683 14.9142 5.16199 15.0335L4.78137 15.4164ZM7.20589 16.5851C6.48459 16.4635 5.80025 16.1797 5.20466 15.7552L5.58987 15.3703C6.07706 15.7018 6.62711 15.9297 7.20589 16.0395V16.5851ZM8.28582 16.6445C8.19597 16.6496 8.10705 16.6582 8.0159 16.6582C7.92453 16.6582 7.83582 16.6496 7.74582 16.6445V16.1045C7.83546 16.1102 7.92453 16.1182 8.0159 16.1182C8.10705 16.1182 8.19611 16.1102 8.28582 16.1045V16.6445ZM8.82568 16.5851V16.0395C9.4047 15.9297 9.95478 15.7018 10.4419 15.3703L10.827 15.7552C10.2313 16.1797 9.54705 16.4635 8.82568 16.5851ZM11.2504 15.4164L10.8688 15.0346C11.0038 14.9154 11.1314 14.7878 11.2507 14.6527L11.6335 15.0333C11.5129 15.168 11.3851 15.2958 11.2504 15.4164ZM11.9722 14.6111L11.5874 14.2258C11.9189 13.7386 12.1468 13.188 12.2565 12.6087H12.8021C12.6806 13.33 12.3968 14.0143 11.9722 14.61V14.6111ZM12.8616 12.0688H12.3216C12.3273 11.9792 12.3353 11.8901 12.3353 11.7987C12.3353 11.7076 12.3273 11.6184 12.3216 11.5288H12.8616C12.8665 11.6187 12.8752 11.7076 12.8752 11.7987C12.8752 11.8901 12.8665 11.9788 12.8616 12.0688ZM11.5489 7.71827L11.5287 7.70092C11.4318 7.61812 11.3324 7.53906 11.2295 7.46224L11.1957 7.43826C11.0932 7.36374 10.989 7.2914 10.8811 7.22386C11.1496 7.03786 11.4687 6.93849 11.7953 6.93937C12.4412 6.93968 13.0249 7.32346 13.2811 7.91605C13.5377 8.50861 13.4176 9.19686 12.9758 9.6676C12.6545 8.91779 12.1666 8.25107 11.5489 7.71827ZM13.3207 10.7837C13.3172 10.7661 13.3119 10.7497 13.3083 10.7321C13.3018 10.6997 13.2929 10.6685 13.2859 10.6364C13.2548 10.4937 13.2196 10.3531 13.1778 10.2152C13.8767 9.63376 14.1362 8.67666 13.8264 7.82181C13.5168 6.96708 12.7044 6.39818 11.7953 6.39952C11.2684 6.39778 10.7592 6.59153 10.3664 6.94309C10.3053 6.91363 10.2442 6.88347 10.1815 6.85647C10.1567 6.84546 10.1329 6.83208 10.1075 6.82162C10.0822 6.8111 10.0536 6.80223 10.0266 6.79146C9.97573 6.77095 9.92404 6.75369 9.87249 6.73469C9.85701 6.72907 9.84218 6.72202 9.82648 6.71656C10.5322 5.9581 11.6098 5.67068 12.5995 5.97711C13.5891 6.28329 14.316 7.12932 14.4697 8.15387C14.6235 9.17829 14.1769 10.2005 13.3207 10.7837ZM13.412 11.9715C13.4152 11.9136 13.4152 11.8557 13.4152 11.7987C13.4152 11.6547 13.4062 11.5129 13.3954 11.3716C13.4098 11.3636 13.4246 11.3561 13.4387 11.3479L13.8302 11.7394C13.6956 11.8259 13.5561 11.9036 13.412 11.9727V11.9715ZM14.2678 11.4122L13.8853 11.0297C14.0234 10.914 14.1519 10.7868 14.2688 10.6498L14.65 11.0307C14.5318 11.1671 14.4042 11.2951 14.2678 11.4134V11.4122ZM14.9772 10.5945L14.5863 10.206C14.7403 9.94487 14.8566 9.66306 14.9316 9.36916H15.4869C15.391 9.8049 15.2185 10.2201 14.9772 10.5955V10.5945ZM15.575 8.55916C15.575 8.64916 15.5716 8.73909 15.5652 8.82916H15.0229C15.0301 8.73973 15.035 8.64995 15.035 8.55916C15.035 8.46844 15.0288 8.37851 15.0212 8.28916H15.5612C15.5677 8.37894 15.575 8.46801 15.575 8.55916ZM14.9754 6.52439C15.2169 6.89915 15.3895 7.31404 15.4853 7.7493H14.9285C14.8529 7.45698 14.7366 7.17674 14.5832 6.91688L14.9754 6.52439ZM14.2666 5.70616C14.4029 5.82405 14.5305 5.95161 14.6485 6.08796L14.2671 6.46968C14.1504 6.33199 14.0226 6.20419 13.8849 6.08764L14.2666 5.70616ZM12.6053 4.86932C13.0407 4.96496 13.4555 5.13773 13.8302 5.37923L13.4377 5.7714C13.1776 5.61835 12.8975 5.50258 12.6053 5.42745V4.86932ZM11.5255 4.79632C11.6153 4.78982 11.7044 4.77952 11.7953 4.77952C11.8863 4.77952 11.9758 4.78681 12.0653 4.79338V5.33331C11.9761 5.32578 11.8868 5.3196 11.7953 5.3196C11.7042 5.3196 11.6152 5.32847 11.5255 5.33608V4.79632ZM10.9856 4.87248V5.42539C10.6939 5.50227 10.4146 5.61953 10.1556 5.77393L9.76175 5.38026C10.1363 5.13979 10.5507 4.96773 10.9856 4.87248ZM9.21542 5.80331C9.25091 5.76981 9.29015 5.741 9.32709 5.70917L9.70703 6.08859C9.54424 6.22786 9.39577 6.38266 9.26329 6.55091C9.06695 6.50364 8.86801 6.46754 8.66749 6.44284C8.73294 6.34679 8.80523 6.25383 8.87953 6.16476C8.89293 6.14837 8.90473 6.13008 8.91863 6.11377C8.99524 6.0239 9.07825 5.93934 9.163 5.85707C9.18078 5.83926 9.1972 5.82041 9.21542 5.80331ZM9.09575 5.18809C8.88983 5.35421 8.69953 5.53909 8.52738 5.74021C8.5461 5.60077 8.55546 5.46031 8.55582 5.3196C8.55582 5.22831 8.54963 5.13892 8.54207 5.04952H9.08416C9.08733 5.096 9.09352 5.14137 9.09575 5.18809ZM9.01007 4.50968H8.44919C8.37366 4.21736 8.25731 3.93714 8.10388 3.67736L8.49801 3.28281C8.74093 3.65772 8.91453 4.07333 9.01007 4.50968Z" fill="#838588"/>
</svg>
