<svg width="24" height="24" viewBox="0 0 24 24" fill="none" xmlns="http://www.w3.org/2000/svg">
<g clip-path="url(#clip0_3218_12165)">
<path d="M18.847 1.43156C18.7289 1.15219 18.5602 0.901875 18.3445 0.686719C18.1294 0.471094 17.8791 0.302344 17.5997 0.184219C17.3109 0.061875 17.0039 0 16.6875 0H14.1159C13.8577 0 13.6472 0.210469 13.6472 0.46875C13.6472 0.727031 13.8577 0.9375 14.1159 0.9375H16.6875C17.4614 0.938906 18.0923 1.56984 18.0938 2.34375V2.34502C17.7017 2.05008 17.2147 1.875 16.6875 1.875H7.3125C6.7853 1.875 6.29827 2.05008 5.90625 2.34502V2.34375C5.90766 1.56984 6.53859 0.938906 7.3125 0.9375H9.89719C10.1559 0.9375 10.3659 0.727031 10.3659 0.46875C10.3659 0.210469 10.1559 0 9.89719 0H7.3125C6.99609 0 6.68906 0.061875 6.40031 0.184219C6.12094 0.302344 5.87063 0.471094 5.65547 0.686719C5.43984 0.901875 5.27109 1.15219 5.15297 1.43156C5.03063 1.72031 4.96875 2.02734 4.96875 2.34375V23.5312C4.96875 23.7746 5.15419 23.9745 5.39142 23.9977C5.4067 23.9992 5.42208 24 5.4375 24H18.5625C18.8214 24 19.0312 23.7901 19.0312 23.5312V2.34375C19.0312 2.02734 18.9694 1.72031 18.847 1.43156ZM18.0938 7.60547H17.1562V6.5625C17.1562 6.04556 16.7357 5.625 16.2188 5.625H7.78125C7.26431 5.625 6.84375 6.04556 6.84375 6.5625V7.60547H5.90625V6.09375C5.90625 5.31834 6.53709 4.6875 7.3125 4.6875H16.6875C17.4629 4.6875 18.0938 5.31834 18.0938 6.09375V7.60547ZM10.0488 9.71484H9.20039L9.63127 9.00558L10.0488 9.71484ZM10.1837 8.09606L10.8453 7.00702L11.5029 8.12409L10.8516 9.23044L10.1837 8.09606ZM12.0469 9.04805L12.4395 9.71484H11.6543L12.0469 9.04805ZM13.2422 9.23044L12.5909 8.12409L13.2408 7.02014L13.8898 8.13047L13.2422 9.23044ZM14.4318 9.05775L14.8159 9.71484H14.0449L14.4318 9.05775ZM14.0589 6.56213L14.8132 6.56208L14.4347 7.20492L14.0589 6.56213ZM12.0469 7.20014L11.6714 6.56227L12.4224 6.56222L12.0469 7.20014ZM9.64383 7.179L9.28083 6.56241L10.0185 6.56236L9.64383 7.179ZM8.19295 6.56245L9.09136 8.08852L8.57184 8.94375L8.35603 7.9725C8.30836 7.75805 8.11814 7.60542 7.89844 7.60542H7.78125V6.5625L8.19295 6.56245ZM16.1016 7.60547C15.8819 7.60547 15.6916 7.75805 15.644 7.97255L15.4344 8.91539L14.9767 8.1322L15.9011 6.56203H16.2188V6.56255V7.60552H16.1016V7.60547ZM5.90625 8.54297H7.52245L7.90964 10.2853C7.95731 10.4997 8.14753 10.6523 8.36723 10.6523H15.6329C15.8526 10.6523 16.0428 10.4998 16.0905 10.2853L16.4776 8.54297H18.0938V10.4883L13.6491 13.7893C13.1511 13.5444 12.5915 13.4062 12 13.4062C9.93225 13.4062 8.25 15.0885 8.25 17.1562C8.25 17.3626 8.26744 17.5649 8.29969 17.7623L5.90625 19.5397V8.54297ZM5.90625 20.7075L8.59027 18.7141C8.80467 19.1815 9.11166 19.5979 9.48877 19.9386L5.90625 22.5992V20.7075ZM9.1875 17.1562C9.1875 15.6054 10.4492 14.3438 12 14.3438C13.5508 14.3438 14.8125 15.6054 14.8125 17.1562C14.8125 18.7071 13.5508 19.9688 12 19.9688C10.4492 19.9688 9.1875 18.7071 9.1875 17.1562ZM14.4757 14.3431L18.0938 11.6561V13.5479L15.3905 15.5558C15.1703 15.0913 14.8573 14.6793 14.4757 14.3431ZM7.3125 2.8125H16.6875C17.4629 2.8125 18.0938 3.44334 18.0938 4.21875V4.22002C17.7017 3.92508 17.2147 3.75 16.6875 3.75H7.3125C6.7853 3.75 6.29827 3.92508 5.90625 4.22002V4.21875C5.90625 3.44334 6.53709 2.8125 7.3125 2.8125ZM6.85486 23.0625L10.3054 20.4999C10.8148 20.7591 11.3903 20.9062 12 20.9062C14.0677 20.9062 15.75 19.224 15.75 17.1562C15.75 16.9323 15.7291 16.7134 15.6914 16.5001L18.0938 14.7157V23.0625H6.85486Z" fill="#647385"/>
<path d="M12.0066 0.9375C12.2655 0.9375 12.4753 0.727633 12.4753 0.46875C12.4753 0.209867 12.2655 0 12.0066 0C11.7477 0 11.5378 0.209867 11.5378 0.46875C11.5378 0.727633 11.7477 0.9375 12.0066 0.9375Z" fill="#647385"/>
<path d="M13.875 17.1562C13.875 16.1224 13.0339 15.2812 12 15.2812C10.9661 15.2812 10.125 16.1224 10.125 17.1562C10.125 18.1901 10.9661 19.0312 12 19.0312C13.0339 19.0312 13.875 18.1901 13.875 17.1562ZM11.0625 17.1562C11.0625 16.6393 11.4831 16.2188 12 16.2188C12.5169 16.2188 12.9375 16.6393 12.9375 17.1562C12.9375 17.6732 12.5169 18.0938 12 18.0938C11.4831 18.0938 11.0625 17.6732 11.0625 17.1562Z" fill="#647385"/>
</g>
<defs>
<clipPath id="clip0_3218_12165">
<rect width="24" height="24" fill="white"/>
</clipPath>
</defs>
</svg>
