<svg width="188" height="40" viewBox="0 0 188 40" fill="none" xmlns="http://www.w3.org/2000/svg">
<path d="M176.794 12.6399C178.633 10.8013 179.479 8.37445 179.295 5.94757L181.538 8.19059L185.987 12.6399C188.524 15.1771 188.524 19.2954 185.987 21.8326L175.25 32.5697C172.713 35.1069 168.595 35.1069 166.057 32.5697C163.52 30.0325 163.52 25.9142 166.057 23.377L176.794 12.6399Z" fill="#FF4200"/>
<path d="M175.25 1.90289C177.787 4.44008 177.787 8.55842 175.25 11.0956L170.654 15.692L166.057 11.0956C163.52 8.55842 163.52 4.44008 166.057 1.90289C168.594 -0.634298 172.713 -0.634298 175.25 1.90289Z" fill="#8F00FF"/>
<path d="M24.2688 8.55904C18.2751 8.55904 13.4214 13.4128 13.4214 19.4065C13.4214 25.4001 18.3119 30.2539 24.2688 30.2539C30.2257 30.2539 35.1162 25.4001 35.1162 19.4065C35.1162 13.4128 30.2624 8.55904 24.2688 8.55904ZM24.2688 25.9149C20.6652 25.9149 17.7603 23.01 17.7603 19.4065C17.7603 15.8029 20.702 12.898 24.2688 12.898C27.8356 12.898 30.7772 15.8029 30.7772 19.4065C30.7772 23.01 27.8723 25.9149 24.2688 25.9149ZM101.046 8.55904C98.6195 8.55904 96.3397 9.368 94.5379 10.7285V4.22008C94.5379 3.00664 93.5819 2.0506 92.3684 2.0506H90.199V30.2539H94.5379V28.0844C96.3397 29.4449 98.6195 30.2539 101.046 30.2539C107.04 30.2539 111.894 25.4001 111.894 19.4065C111.894 13.4128 107.04 8.55904 101.046 8.55904ZM101.046 25.9149C97.4428 25.9149 94.5379 23.01 94.5379 19.4065C94.5379 15.8029 97.4428 12.898 101.046 12.898C104.65 12.898 107.555 15.8029 107.555 19.4065C107.555 23.01 104.65 25.9149 101.046 25.9149ZM81.1166 8.55904H85.4555V28.9669C85.4555 34.9238 80.7488 39.8878 74.792 39.9981C68.7248 40.1085 63.7607 35.2179 63.7607 29.1507H66.1876C67.1804 29.1507 68.0261 29.8126 68.2835 30.7687C69.0189 33.6368 71.6664 35.7327 74.792 35.6592C78.322 35.5489 81.1166 32.5704 81.1166 29.0037V25.8781C79.278 27.2386 76.9982 28.0476 74.5346 28.0476C68.5409 28.0108 63.7607 23.01 63.7607 17.0163V8.55904H65.9302C67.1436 8.55904 68.0997 9.51509 68.0997 10.7285V17.0899C68.0997 20.6199 70.8575 23.6351 74.4243 23.7454C78.1013 23.8557 81.1166 20.8773 81.1166 17.237V8.55904ZM59.863 19.4065V30.2539H57.6935C56.4801 30.2539 55.524 29.2978 55.524 28.0844V19.4065C55.524 15.8029 52.6191 12.898 49.0156 12.898C45.412 12.898 42.5071 15.8029 42.5071 19.4065V30.2539H38.1682V8.55904H42.5071V10.7285C44.3089 9.368 46.5887 8.55904 49.0156 8.55904C55.0092 8.55904 59.863 13.4128 59.863 19.4065ZM10.8474 25.9149V30.2539C4.85376 30.2539 0 25.4001 0 19.4065V4.22008H2.16948C3.38292 4.22008 4.33896 5.17612 4.33896 6.38956V8.55904H10.8474V12.898H4.33896V19.4065C4.33896 22.9732 7.24386 25.9149 10.8474 25.9149ZM143.553 12.898V19.4065C143.553 23.01 146.458 25.9149 150.062 25.9149V30.2539C144.068 30.2539 139.215 25.4001 139.215 19.4065V4.22008H141.384C142.597 4.22008 143.553 5.17612 143.553 6.38956V8.55904H150.062V12.898H143.553ZM135.868 20.9141C135.942 20.436 135.979 19.9212 135.979 19.4065C135.979 13.2657 130.904 8.33842 124.727 8.55904C119.101 8.77967 114.541 13.3393 114.321 18.9652C114.1 25.1427 119.027 30.2171 125.168 30.2171C128.698 30.2171 131.824 28.5256 133.772 25.9517L132.449 25.1795C131.162 24.4441 129.544 24.4073 128.22 25.1059C127.154 25.6943 125.903 25.9884 124.58 25.8414C121.785 25.584 119.469 23.5616 118.807 20.8773H135.868V20.9141ZM125.793 12.9348C128.294 13.1922 130.426 14.9204 131.235 17.237H118.991C119.947 14.5159 122.668 12.6038 125.793 12.9348Z" fill="white"/>
</svg>
