<svg width="33" height="32" viewBox="0 0 33 32" fill="none" xmlns="http://www.w3.org/2000/svg">
<g clip-path="url(#clip0_5754_1792)">
<path d="M19.843 32.0039C20.9129 32.0039 21.846 31.0709 21.846 30.0009V25.3231H23.1834C23.986 25.3231 24.5208 24.788 24.5208 23.9856V10.625H8.48438V23.9858C8.48438 24.7882 9.01935 25.3232 9.82181 25.3232H11.1593V30.001C11.1593 31.071 12.0922 32.004 13.1623 32.004C14.2322 32.004 15.1651 31.071 15.1651 30.001V25.3232H17.8401V30.001C17.84 31.0709 18.773 32.0039 19.843 32.0039Z" fill="white"/>
<path d="M27.8624 23.9857C28.9323 23.9857 29.8652 23.0528 29.8652 21.9828V12.6271C29.8652 11.5629 28.9323 10.625 27.8624 10.625C26.7923 10.625 25.8594 11.5629 25.8594 12.6271V21.9828C25.8594 23.0527 26.7922 23.9857 27.8624 23.9857Z" fill="white"/>
<path d="M5.14341 23.9857C6.21346 23.9857 7.1464 23.0528 7.1464 21.9828V12.6271C7.1464 11.5629 6.21357 10.625 5.14341 10.625C4.07346 10.625 3.14062 11.5629 3.14062 12.6271V21.9828C3.14062 23.0527 4.07346 23.9857 5.14341 23.9857Z" fill="white"/>
<path d="M22.9158 0.201816C22.6484 -0.067272 22.2504 -0.067272 21.983 0.201816L20.1892 1.98965L20.1064 2.0723C19.0428 1.53967 17.8502 1.27368 16.5222 1.27112C16.5157 1.27112 16.5093 1.27091 16.5028 1.27091H16.5026C16.4958 1.27091 16.4896 1.27112 16.4829 1.27112C15.155 1.27368 13.9625 1.53967 12.8989 2.0723L12.8159 1.98965L11.0222 0.201816C10.7546 -0.067272 10.3568 -0.067272 10.0894 0.201816C9.82181 0.469409 9.82181 0.866527 10.0894 1.13391L11.8246 2.86942C11.2655 3.24272 10.7585 3.69953 10.3176 4.22201C9.26206 5.47316 8.58881 7.10147 8.49623 8.8657C8.49537 8.88407 8.49356 8.90222 8.4927 8.92059C8.48704 9.04071 8.48438 9.16148 8.48438 9.28268H24.5208C24.5208 9.16148 24.518 9.04071 24.5125 8.92059C24.5117 8.90222 24.5098 8.88407 24.5088 8.8657C24.4164 7.10147 23.7429 5.47306 22.6874 4.22212C22.2467 3.69964 21.7395 3.24283 21.1804 2.86952L22.9158 1.13401C23.1834 0.866527 23.1834 0.469409 22.9158 0.201816ZM13.1598 6.94749C12.6064 6.94749 12.1579 6.4989 12.1579 5.94556C12.1579 5.39222 12.6064 4.94364 13.1598 4.94364C13.7131 4.94364 14.1617 5.39222 14.1617 5.94556C14.1617 6.4989 13.7131 6.94749 13.1598 6.94749ZM19.8454 6.94749C19.2921 6.94749 18.8435 6.4989 18.8435 5.94556C18.8435 5.39222 19.2921 4.94364 19.8454 4.94364C20.3988 4.94364 20.8474 5.39222 20.8474 5.94556C20.8474 6.4989 20.3988 6.94749 19.8454 6.94749Z" fill="white"/>
</g>
<defs>
<clipPath id="clip0_5754_1792">
<rect width="32" height="32" fill="white" transform="translate(0.5)"/>
</clipPath>
</defs>
</svg>
