<svg width="230" height="49" viewBox="0 0 230 49" fill="none" xmlns="http://www.w3.org/2000/svg">
<path d="M216.416 15.4814C218.667 13.2292 219.702 10.2563 219.477 7.28333L222.223 10.031L227.67 15.4814C230.777 18.5895 230.777 23.6345 227.67 26.7426L214.525 39.8955C211.419 43.0036 206.377 43.0036 203.271 39.8955C200.165 36.7875 200.165 31.7425 203.271 28.6344L216.416 15.4814Z" fill="#FF4200"/>
<path d="M214.526 2.33113C217.632 5.43931 217.632 10.4845 214.526 13.5927L208.899 19.2234L203.271 13.5927C200.165 10.4845 200.165 5.43931 203.271 2.33113C206.377 -0.777045 211.42 -0.777045 214.526 2.33113Z" fill="#8F00FF"/>
<path d="M29.7114 10.4847C22.3736 10.4847 16.4313 16.4306 16.4313 23.7729C16.4313 31.1151 22.4186 37.061 29.7114 37.061C37.0042 37.061 42.9914 31.1151 42.9914 23.7729C42.9914 16.4306 37.0492 10.4847 29.7114 10.4847ZM29.7114 31.7457C25.2997 31.7457 21.7433 28.1872 21.7433 23.7729C21.7433 19.3585 25.3447 15.8 29.7114 15.8C34.078 15.8 37.6794 19.3585 37.6794 23.7729C37.6794 28.1872 34.1231 31.7457 29.7114 31.7457ZM123.707 10.4847C120.736 10.4847 117.945 11.4757 115.739 13.1423V5.16947C115.739 3.683 114.569 2.51184 113.083 2.51184H110.427V37.061H115.739V34.4034C117.945 36.07 120.736 37.061 123.707 37.061C131.045 37.061 136.987 31.1151 136.987 23.7729C136.987 16.4306 131.045 10.4847 123.707 10.4847ZM123.707 31.7457C119.296 31.7457 115.739 28.1872 115.739 23.7729C115.739 19.3585 119.296 15.8 123.707 15.8C128.119 15.8 131.675 19.3585 131.675 23.7729C131.675 28.1872 128.119 31.7457 123.707 31.7457ZM99.308 10.4847H104.62V35.4844C104.62 42.7817 98.8578 48.8627 91.565 48.9978C84.1372 49.1329 78.0599 43.142 78.0599 35.7097H81.031C82.2465 35.7097 83.2819 36.5205 83.597 37.6916C84.4973 41.2051 87.7386 43.7726 91.565 43.6825C95.8867 43.5474 99.308 39.8988 99.308 35.5295V31.7007C97.0571 33.3673 94.2661 34.3583 91.2499 34.3583C83.9121 34.3133 78.0599 28.1872 78.0599 20.845V10.4847H80.7159C82.2014 10.4847 83.3719 11.6559 83.3719 13.1423V20.9351C83.3719 25.2593 86.7482 28.953 91.1148 29.0881C95.6166 29.2232 99.308 25.5746 99.308 21.1152V10.4847ZM73.288 23.7729V37.061H70.632C69.1464 37.061 67.976 35.8898 67.976 34.4034V23.7729C67.976 19.3585 64.4196 15.8 60.008 15.8C55.5963 15.8 52.0399 19.3585 52.0399 23.7729V37.061H46.7279V10.4847H52.0399V13.1423C54.2457 11.4757 57.0368 10.4847 60.008 10.4847C67.3458 10.4847 73.288 16.4306 73.288 23.7729ZM13.2801 31.7457V37.061C5.94227 37.061 0 31.1151 0 23.7729V5.16947H2.65602C4.14158 5.16947 5.31203 6.34063 5.31203 7.8271V10.4847H13.2801V15.8H5.31203V23.7729C5.31203 28.1422 8.86839 31.7457 13.2801 31.7457ZM175.747 15.8V23.7729C175.747 28.1872 179.304 31.7457 183.715 31.7457V37.061C176.377 37.061 170.435 31.1151 170.435 23.7729V5.16947H173.091C174.577 5.16947 175.747 6.34063 175.747 7.8271V10.4847H183.715V15.8H175.747ZM166.339 25.6197C166.429 25.0341 166.474 24.4035 166.474 23.7729C166.474 16.2504 160.261 10.2145 152.698 10.4847C145.811 10.755 140.229 16.3405 139.959 23.2323C139.688 30.7998 145.721 37.0159 153.239 37.0159C157.56 37.0159 161.387 34.9439 163.773 31.7908L162.152 30.8448C160.576 29.944 158.596 29.8989 156.975 30.7548C155.67 31.4755 154.139 31.8358 152.518 31.6557C149.097 31.3403 146.261 28.8629 145.451 25.5746H166.339V25.6197ZM154.004 15.845C157.065 16.1603 159.676 18.2774 160.666 21.1152H145.676C146.846 17.7819 150.177 15.4396 154.004 15.845Z" fill="white"/>
</svg>
