<svg width="144" height="80" viewBox="0 0 144 80" fill="none" xmlns="http://www.w3.org/2000/svg">
<rect width="144" height="80" rx="6" fill="white"/>
<g clip-path="url(#clip0_3_2216)">
<path d="M42.6276 55.3098V24.6899H44.1661V55.3098H42.6276ZM58.8665 28.6828V28.5358H65.0445V43.8457C65.0445 48.0835 61.577 51.5129 57.3037 51.5129C53.0302 51.5129 49.5627 48.0835 49.5627 43.8457H55.7652C55.7652 44.7031 56.4489 45.389 57.3037 45.389C58.1583 45.389 58.8421 44.7031 58.8421 43.8457V28.6828H58.8665ZM81.1858 36.7419C81.8694 37.4768 82.4067 38.3586 82.7486 39.3875C83.0905 40.3919 83.2858 41.5431 83.2858 42.7924C83.2858 43.0864 83.2858 43.3558 83.2614 43.6007C83.2369 43.9193 83.1882 44.0662 83.1393 44.1887L82.9684 44.5316H72.2727C72.3215 44.7766 72.3948 44.9971 72.5169 45.2175C72.7122 45.6095 72.9564 45.9769 73.2738 46.2708C73.5914 46.5648 73.9576 46.7852 74.3728 46.9567C74.7879 47.1282 75.2274 47.2016 75.6914 47.2016C76.6193 47.2016 77.352 47.0057 77.8158 46.5892L78.0601 46.3687L82.6021 47.618L82.1136 48.3285C81.6741 48.9654 81.1614 49.5043 80.5264 49.9698C79.8915 50.4351 79.1833 50.8025 78.3775 51.072C77.5716 51.3414 76.6681 51.464 75.7158 51.464C74.617 51.464 73.5425 51.2679 72.5413 50.8761C71.5401 50.4841 70.6366 49.9207 69.8797 49.1858C69.1226 48.4509 68.5122 47.5446 68.0482 46.4668C67.5842 45.4134 67.3644 44.1887 67.3644 42.8413C67.3644 41.5922 67.5842 40.4163 68.0237 39.3875C68.4633 38.3586 69.0494 37.4768 69.7819 36.7174C70.5145 35.9825 71.3691 35.3946 72.3215 35.0027C73.2738 34.5863 74.2996 34.3903 75.3251 34.3903C76.546 34.3903 77.6694 34.5863 78.6706 34.9782C79.6473 35.4191 80.5019 36.007 81.1858 36.7419ZM72.4192 40.7103H78.353C78.3287 40.5632 78.2798 40.4407 78.2309 40.2938C78.1088 39.9754 77.9135 39.7059 77.6694 39.461C77.4252 39.216 77.1078 39.0201 76.717 38.8486C76.3507 38.7015 75.8867 38.6281 75.3495 38.6281C74.8855 38.6281 74.4704 38.7015 74.1041 38.873C73.7378 39.0445 73.4204 39.2404 73.1762 39.51C72.9076 39.7794 72.7122 40.0733 72.5413 40.4163C72.4924 40.4898 72.4436 40.6122 72.4192 40.7103ZM110.733 36.8644C111.49 37.6238 112.076 38.5301 112.516 39.559C112.931 40.5878 113.151 41.7146 113.151 42.9394C113.151 44.1642 112.931 45.2909 112.516 46.3443C112.101 47.3977 111.49 48.304 110.733 49.0633C109.976 49.8227 109.073 50.4351 108.072 50.8515C107.046 51.2679 105.923 51.4884 104.702 51.4884C103.505 51.4884 102.382 51.2679 101.356 50.8515C100.331 50.4351 99.427 49.8227 98.67 49.0633C97.9375 48.304 97.3269 47.3977 96.9117 46.3443C96.4967 45.3155 96.2769 44.1642 96.2769 42.9394C96.2769 41.7146 96.4967 40.5878 96.9117 39.559C97.3269 38.5301 97.913 37.6238 98.67 36.8644C99.427 36.105 100.306 35.4926 101.356 35.0762C102.382 34.6598 103.505 34.4393 104.702 34.4393C105.923 34.4393 107.046 34.6598 108.072 35.0762C109.073 35.4926 109.976 36.105 110.733 36.8644ZM107.998 44.7766C108.194 44.2621 108.291 43.6498 108.291 42.9394C108.291 42.2535 108.194 41.641 107.998 41.1267C107.803 40.6368 107.534 40.1958 107.192 39.853C106.875 39.51 106.484 39.265 106.069 39.118C105.63 38.9465 105.166 38.873 104.702 38.873C104.213 38.873 103.774 38.9465 103.334 39.118C102.919 39.2895 102.553 39.5344 102.235 39.853C101.918 40.1958 101.649 40.6122 101.429 41.1267C101.234 41.641 101.112 42.229 101.112 42.9394C101.112 43.6253 101.21 44.2377 101.429 44.7766C101.625 45.2909 101.893 45.7319 102.235 46.0749C102.553 46.4178 102.919 46.6627 103.359 46.8342C103.798 47.0057 104.238 47.1037 104.726 47.1037C105.19 47.1037 105.654 47.0057 106.093 46.8342C106.509 46.6627 106.899 46.4178 107.217 46.0749C107.534 45.7074 107.803 45.2909 107.998 44.7766ZM129.634 38.5056C129.878 39.2895 130 40.1223 130 40.9796V51.023H125.165V41.5922C125.165 40.8083 124.97 40.1468 124.579 39.6079C124.237 39.1426 123.627 38.8976 122.674 38.8976C121.844 38.8976 121.233 39.1426 120.843 39.6815C120.403 40.2694 120.183 40.9552 120.183 41.8125V51.023H115.348V34.8802H120.086V35.7621C120.403 35.4926 120.769 35.2477 121.16 35.0762C122.064 34.6598 122.992 34.4638 123.92 34.4638C124.921 34.4638 125.824 34.6353 126.581 34.9782C127.338 35.3212 127.998 35.8111 128.486 36.4235C128.999 37.0114 129.39 37.7218 129.634 38.5056ZM93.2977 46.7852C93.6152 46.7363 93.6884 46.7363 93.7129 46.7117L94.4943 46.5158V50.6556L94.1035 50.8025C94.0059 50.8271 93.8593 50.9005 93.3466 51.023C92.9315 51.121 92.3942 51.17 91.6617 51.17C90.0988 51.17 88.829 50.729 87.9255 49.8227C87.022 48.9898 86.5336 47.7161 86.5336 46.1484V39.265H84.6776V34.8802H86.5336V30.324H91.3198V34.8802H94.4454V39.265H91.3198V45.5604C91.3198 46.0259 91.4174 46.3687 91.5883 46.5402C91.7838 46.7117 92.1256 46.8098 92.6139 46.8098C92.8583 46.8342 93.0779 46.8098 93.2977 46.7852ZM15.5954 34.7332C15.4733 34.7578 15.3512 34.6353 15.4245 34.5128C16.8896 31.8427 19.4048 29.7606 22.6037 28.9277C25.8027 28.0704 29.0261 28.6338 31.639 30.226C31.761 30.2995 31.7365 30.471 31.5901 30.4955L15.5954 34.7332ZM35.2286 33.5819C35.9368 34.6108 36.474 35.7621 36.8158 37.0114C37.1577 38.2607 37.2798 39.5344 37.1822 40.7593C37.1822 40.8327 37.1333 40.8818 37.0599 40.9062L16.157 46.4668C16.0838 46.4912 16.0349 46.4668 15.9861 46.3933C15.3024 45.3645 14.7407 44.2131 14.3988 42.9639C14.057 41.7146 13.9349 40.4407 14.0326 39.216C14.0326 39.1426 14.0814 39.0935 14.1547 39.069L35.0576 33.533C35.1308 33.5085 35.2041 33.533 35.2286 33.5819ZM35.6192 45.2665C35.7413 45.2421 35.8634 45.3645 35.7902 45.487C34.3251 48.157 31.8098 50.2391 28.6109 51.072C25.412 51.9293 22.1886 51.366 19.5757 49.7737C19.4537 49.7002 19.4781 49.5287 19.6246 49.5043L35.6192 45.2665Z" fill="#FF6300"/>
</g>
<defs>
<clipPath id="clip0_3_2216">
<rect width="116" height="32" fill="white" transform="translate(14 24)"/>
</clipPath>
</defs>
</svg>
