<svg width="145" height="80" viewBox="0 0 145 80" fill="none" xmlns="http://www.w3.org/2000/svg">
<rect x="0.200012" width="144" height="80" rx="6" fill="white"/>
<g clip-path="url(#clip0_3_2182)">
<path d="M100.973 62.759V62.8807H101.085C101.11 62.8807 101.131 62.8748 101.147 62.8653C101.161 62.8559 101.169 62.8393 101.169 62.8192C101.169 62.7991 101.161 62.7838 101.147 62.7743C101.131 62.7637 101.11 62.759 101.085 62.759H100.973ZM101.086 62.6738C101.144 62.6738 101.189 62.6868 101.221 62.7128C101.253 62.7389 101.268 62.7743 101.268 62.8192C101.268 62.8571 101.256 62.8877 101.23 62.9126C101.205 62.9363 101.17 62.9516 101.123 62.9575L101.272 63.1289H101.156L101.018 62.9587H100.973V63.1289H100.877V62.6738H101.086ZM101.057 63.2861C101.11 63.2861 101.159 63.2754 101.204 63.2553C101.25 63.2352 101.29 63.2081 101.325 63.1738C101.359 63.1395 101.386 63.0993 101.406 63.0521C101.425 63.0059 101.435 62.9563 101.435 62.9031C101.435 62.8499 101.425 62.8003 101.406 62.7542C101.386 62.7081 101.359 62.6667 101.325 62.6324C101.29 62.5982 101.25 62.571 101.204 62.5509C101.159 62.532 101.11 62.5226 101.057 62.5226C101.004 62.5226 100.953 62.532 100.907 62.5509C100.86 62.571 100.819 62.5982 100.785 62.6324C100.75 62.6667 100.723 62.7081 100.704 62.7542C100.684 62.8003 100.675 62.8499 100.675 62.9031C100.675 62.9563 100.684 63.0059 100.704 63.0521C100.723 63.0993 100.75 63.1395 100.785 63.1738C100.819 63.2081 100.86 63.2352 100.907 63.2553C100.953 63.2754 101.004 63.2861 101.057 63.2861ZM101.057 62.4126C101.127 62.4126 101.19 62.4257 101.252 62.4516C101.312 62.4764 101.364 62.5119 101.409 62.5568C101.454 62.6006 101.49 62.6525 101.516 62.7128C101.542 62.7719 101.555 62.8358 101.555 62.9031C101.555 62.9705 101.542 63.0343 101.516 63.0934C101.49 63.1525 101.454 63.2045 101.409 63.2495C101.364 63.2932 101.312 63.3286 101.252 63.3546C101.19 63.3806 101.127 63.3936 101.057 63.3936C100.986 63.3936 100.921 63.3806 100.86 63.3546C100.799 63.3286 100.746 63.2932 100.701 63.2495C100.656 63.2045 100.621 63.1525 100.595 63.0934C100.569 63.0343 100.556 62.9705 100.556 62.9031C100.556 62.8358 100.569 62.7719 100.595 62.7128C100.621 62.6525 100.656 62.6006 100.701 62.5568C100.746 62.5119 100.799 62.4764 100.86 62.4516C100.921 62.4257 100.986 62.4126 101.057 62.4126ZM55.1124 60.6599C55.1124 59.7923 55.6797 59.0796 56.6065 59.0796C57.4921 59.0796 58.09 59.7616 58.09 60.6599C58.09 61.5581 57.4921 62.2401 56.6065 62.2401C55.6797 62.2401 55.1124 61.5274 55.1124 60.6599ZM59.0994 60.6599V58.1921H58.0287V58.7912C57.6891 58.3469 57.1737 58.0679 56.4732 58.0679C55.0923 58.0679 54.0098 59.1529 54.0098 60.6599C54.0098 62.168 55.0923 63.2518 56.4732 63.2518C57.1737 63.2518 57.6891 62.9729 58.0287 62.5285V63.1277H59.0994V60.6599ZM95.2833 60.6599C95.2833 59.7923 95.8506 59.0796 96.7775 59.0796C97.6642 59.0796 98.2609 59.7616 98.2609 60.6599C98.2609 61.5581 97.6642 62.2401 96.7775 62.2401C95.8506 62.2401 95.2833 61.5274 95.2833 60.6599ZM99.2715 60.6599V56.21H98.1996V58.7912C97.86 58.3469 97.3446 58.0679 96.6442 58.0679C95.2633 58.0679 94.1807 59.1529 94.1807 60.6599C94.1807 62.168 95.2633 63.2518 96.6442 63.2518C97.3446 63.2518 97.86 62.9729 98.1996 62.5285V63.1277H99.2715V60.6599ZM72.3907 59.0288C73.0805 59.0288 73.524 59.4626 73.6371 60.2261H71.0817C71.1961 59.5134 71.6277 59.0288 72.3907 59.0288ZM72.4119 58.0679C70.9686 58.0679 69.9591 59.121 69.9591 60.6599C69.9591 62.2295 71.0098 63.2518 72.4839 63.2518C73.2256 63.2518 73.9048 63.0662 74.5027 62.5604L73.9779 61.7649C73.5652 62.0947 73.0393 62.2814 72.5451 62.2814C71.8553 62.2814 71.2268 61.9611 71.0723 61.0724H74.7291C74.7397 60.9388 74.7504 60.8041 74.7504 60.6599C74.7397 59.121 73.7916 58.0679 72.4119 58.0679ZM85.3411 60.6599C85.3411 59.7923 85.9083 59.0796 86.8353 59.0796C87.7208 59.0796 88.3188 59.7616 88.3188 60.6599C88.3188 61.5581 87.7208 62.2401 86.8353 62.2401C85.9083 62.2401 85.3411 61.5274 85.3411 60.6599ZM89.3282 60.6599V58.1921H88.2574V58.7912C87.9166 58.3469 87.4025 58.0679 86.702 58.0679C85.3211 58.0679 84.2385 59.1529 84.2385 60.6599C84.2385 62.168 85.3211 63.2518 86.702 63.2518C87.4025 63.2518 87.9166 62.9729 88.2574 62.5285V63.1277H89.3282V60.6599ZM79.294 60.6599C79.294 62.1573 80.3341 63.2518 81.9213 63.2518C82.6631 63.2518 83.1572 63.0863 83.6925 62.6632L83.1784 61.7957C82.7763 62.0852 82.3541 62.2401 81.8895 62.2401C81.0345 62.2295 80.406 61.6101 80.406 60.6599C80.406 59.7096 81.0345 59.0903 81.8895 59.0796C82.3541 59.0796 82.7763 59.2345 83.1784 59.5241L83.6925 58.6565C83.1572 58.2334 82.6631 58.0679 81.9213 58.0679C80.3341 58.0679 79.294 59.1624 79.294 60.6599ZM93.0994 58.0679C92.4815 58.0679 92.0793 58.3575 91.801 58.7912V58.1921H90.7397V63.1277H91.8116V60.3608C91.8116 59.5442 92.1619 59.0903 92.8623 59.0903C93.0793 59.0903 93.3057 59.121 93.5322 59.2144L93.8624 58.2026C93.6253 58.1093 93.3164 58.0679 93.0994 58.0679ZM64.3954 58.5844C63.8801 58.244 63.1702 58.0679 62.3871 58.0679C61.1395 58.0679 60.3365 58.6672 60.3365 59.6481C60.3365 60.453 60.9343 60.9494 62.0358 61.1042L62.5416 61.1764C63.1289 61.2591 63.406 61.4139 63.406 61.6928C63.406 62.0746 63.0145 62.2921 62.2834 62.2921C61.5417 62.2921 61.0062 62.0545 60.6454 61.7756L60.1407 62.6112C60.728 63.0449 61.4697 63.2518 62.2728 63.2518C63.6949 63.2518 64.5192 62.5805 64.5192 61.6409C64.5192 60.7733 63.8706 60.3194 62.7987 60.1646L62.294 60.0914C61.8306 60.0299 61.4591 59.9377 61.4591 59.6068C61.4591 59.2451 61.8093 59.0288 62.3966 59.0288C63.0252 59.0288 63.6336 59.2664 63.932 59.4519L64.3954 58.5844ZM78.2114 58.0679C77.5935 58.0679 77.1914 58.3575 76.9143 58.7912V58.1921H75.8529V63.1277H76.9237V60.3608C76.9237 59.5442 77.2739 59.0903 77.9744 59.0903C78.1913 59.0903 78.4178 59.121 78.6442 59.2144L78.9744 58.2026C78.7374 58.1093 78.4284 58.0679 78.2114 58.0679ZM69.0735 58.1921H67.3223V56.6945H66.2397V58.1921H65.241V59.173H66.2397V61.4246C66.2397 62.5698 66.6831 63.2518 67.9497 63.2518C68.4143 63.2518 68.9496 63.1076 69.2893 62.87L68.9803 61.9505C68.6607 62.1361 68.3105 62.2295 68.0322 62.2295C67.4968 62.2295 67.3223 61.8985 67.3223 61.4033V59.173H69.0735V58.1921ZM53.0629 63.1277V60.0299C53.0629 58.8634 52.3212 58.0786 51.1254 58.0679C50.4969 58.0573 49.8483 58.2535 49.3943 58.9461C49.0546 58.3988 48.5193 58.0679 47.7669 58.0679C47.241 58.0679 46.7268 58.2227 46.3247 58.8007V58.1921H45.2527V63.1277H46.3341V60.3916C46.3341 59.5347 46.8082 59.0796 47.5405 59.0796C48.2516 59.0796 48.6112 59.5442 48.6112 60.3809V63.1277H49.6938V60.3916C49.6938 59.5347 50.1879 59.0796 50.899 59.0796C51.6301 59.0796 51.9804 59.5442 51.9804 60.3809V63.1277H53.0629Z" fill="#231F20"/>
<path d="M101.634 46.7132V45.9922H101.446L101.229 46.4874L101.013 45.9922H100.825V46.7132H100.958V46.1695L101.161 46.6387H101.299L101.502 46.1683V46.7132H101.634ZM100.444 46.7132V46.1151H100.684V45.9934H100.071V46.1151H100.312V46.7132H100.444Z" fill="#F79410"/>
<path d="M80.3132 49.8146H64.085V20.5835H80.3132V49.8146Z" fill="#FF5F00"/>
<path d="M65.1245 35.1968C65.1245 29.2671 67.8946 23.9851 72.2083 20.5812C69.0538 18.0921 65.0726 16.6064 60.746 16.6064C50.503 16.6064 42.2 24.9294 42.2 35.1968C42.2 45.4641 50.503 53.787 60.746 53.787C65.0726 53.787 69.0538 52.3014 72.2083 49.8123C67.8946 46.4084 65.1245 41.1264 65.1245 35.1968Z" fill="#EB001B"/>
<path d="M102.2 35.1968C102.2 45.4641 93.8966 53.787 83.6537 53.787C79.327 53.787 75.3459 52.3014 72.1902 49.8123C76.5051 46.4084 79.2752 41.1264 79.2752 35.1968C79.2752 29.2671 76.5051 23.9851 72.1902 20.5812C75.3459 18.0921 79.327 16.6064 83.6537 16.6064C93.8966 16.6064 102.2 24.9294 102.2 35.1968Z" fill="#F79E1B"/>
</g>
<defs>
<clipPath id="clip0_3_2182">
<rect width="60" height="48" fill="white" transform="translate(42.2 16)"/>
</clipPath>
</defs>
</svg>
