<svg width="145" height="80" viewBox="0 0 145 80" fill="none" xmlns="http://www.w3.org/2000/svg">
<rect x="0.599976" width="144" height="80" rx="6" fill="white"/>
<g clip-path="url(#clip0_3_2200)">
<path d="M119.235 38.3592C118.625 38.7625 117.608 38.9642 116.388 38.9642H115.168L115.981 33.7208H116.998C118.015 33.7208 118.828 33.9225 119.438 34.1242C119.845 34.5275 120.251 34.9308 120.251 36.1408C120.251 37.3508 119.845 37.9558 119.235 38.3592ZM42.3746 45.0142H32.4113L33.0213 41.3842H39.3246L39.9346 37.5525H33.8346L34.4446 34.1242H44.4079L42.3746 45.0142ZM124.725 31.0992C123.098 30.0908 120.861 29.6875 118.015 29.6875H110.491L107.645 45.0142H97.6813L98.2913 41.3842H104.188L105.001 37.5525H98.9013L99.7146 34.1242H105.815L106.628 29.6875H94.0213L91.3779 44.2075H86.7013L89.5479 29.6875H82.8379L80.1946 44.2075H75.7213L78.3646 29.6875H71.8579L69.0113 45.0142H59.0479L59.6579 41.3842H65.5546L66.3679 37.5525H60.2679L60.8779 34.1242H67.1813L67.9946 29.6875H28.7513L26.5146 41.7875L22.2446 29.6875H15.3313L11.6713 49.4508H18.1779L20.4146 36.9475L24.6846 49.4508H48.0679L50.9146 34.1242H54.5746L51.7279 49.4508H113.135L114.965 39.7708L117.811 49.4508H124.318L121.268 41.5858L122.081 41.3842C123.505 40.9808 124.725 40.3758 125.538 39.3675C126.351 38.3592 126.758 36.9475 126.758 35.3342C126.758 33.5192 126.148 32.1075 124.725 31.0992ZM130.011 47.0308H131.435C131.435 46.8292 131.435 46.8292 131.638 46.8292V46.4258C131.638 46.2242 131.638 46.2242 131.435 46.0225H130.011V47.0308ZM129.605 48.8458V45.8208L130.825 45.6192H131.638C131.638 45.8208 131.841 45.8208 131.841 46.0225C132.045 46.0225 132.045 46.2242 132.045 46.4258C132.045 46.6275 132.045 46.8292 131.841 47.0308C131.841 47.2325 131.435 47.2325 131.231 47.4342H131.435L131.841 47.8375L132.451 48.6442H131.841L131.435 48.0392C131.435 47.8375 131.231 47.8375 131.231 47.6358C131.028 47.6358 131.028 47.4342 131.028 47.4342H130.011V48.8458H129.605Z" fill="#8CC540"/>
<path d="M128.389 47.2311C128.389 46.6261 128.592 46.0211 128.999 45.6177C129.405 45.2144 130.015 44.8111 130.625 44.8111C132.049 44.8111 133.065 45.8194 133.269 47.0294V47.2311C133.269 48.4411 132.252 49.4494 130.829 49.6511C129.609 49.6511 128.389 48.6427 128.389 47.2311ZM130.625 44.4077C129.812 44.4077 129.202 44.6094 128.592 45.2144C127.982 45.8194 127.779 46.6261 127.779 47.4327C127.982 49.0461 129.202 50.2561 130.829 50.0544C132.455 50.0544 133.675 48.6427 133.675 47.0294C133.675 45.4161 132.252 44.2061 130.625 44.4077Z" fill="#8CC540"/>
</g>
<defs>
<clipPath id="clip0_3_2200">
<rect width="122" height="22" fill="white" transform="translate(11.6 29)"/>
</clipPath>
</defs>
</svg>
