<svg width="145" height="80" viewBox="0 0 145 80" fill="none" xmlns="http://www.w3.org/2000/svg">
<rect x="0.800049" width="144" height="80" rx="6" fill="white"/>
<g clip-path="url(#clip0_3_2206)">
<path d="M15.8 26.706C17.7 26.706 19.6266 26.6833 21.538 26.6871C21.9902 26.6871 22.5982 26.487 22.8528 26.7777C23.1074 27.0685 22.9174 27.6199 22.9212 28.0618C22.9212 28.5678 22.9212 29.0777 22.9212 29.7008C23.3548 29.0464 23.8651 28.4456 24.4412 27.9107C27.3634 25.2973 32.368 25.6448 35.123 28.345C36.6551 29.8911 37.6371 31.8921 37.9198 34.0438C38.4052 36.6343 38.2474 39.3035 37.46 41.8197C36.4454 44.7691 34.5226 46.8198 31.38 47.526C30.3356 47.796 29.2479 47.8586 28.1792 47.7102C27.1105 47.5618 26.0817 47.2053 25.1518 46.6612C24.2423 46.1189 23.4957 45.3442 22.9896 44.4179C22.8566 44.5426 22.9174 44.6823 22.9174 44.7956C22.9174 47.7904 22.9174 50.7814 22.9174 53.7724C22.9174 54.101 22.8452 54.1916 22.507 54.1878C20.4284 54.1878 18.3498 54.1878 16.275 54.1878C16.1116 54.1878 15.952 54.1878 15.7886 54.2143L15.8 26.706ZM22.7312 36.9026C22.7287 37.3744 22.7528 37.846 22.8034 38.3151C22.8589 38.7833 22.9607 39.2451 23.1074 39.6935C23.3373 40.5035 23.8402 41.2104 24.532 41.6958C25.2238 42.1812 26.0624 42.4156 26.9074 42.3597C28.758 42.3333 30.069 41.374 30.5782 39.5953C31.093 37.8431 31.093 35.9811 30.5782 34.2288C30.3902 33.4297 29.9316 32.7189 29.2793 32.2157C28.6269 31.7124 27.8204 31.4472 26.9948 31.4644C25.1138 31.4191 23.78 32.3179 23.1492 34.074C22.8377 34.9837 22.6961 35.9423 22.7312 36.9026Z" fill="#010101"/>
<path d="M49.6425 26C49.9711 26.1101 50.3117 26.1811 50.6571 26.2115C52.2618 26.5543 53.6648 27.5141 54.5597 28.8815C54.6509 29.0137 54.7383 29.1496 54.9055 29.4064V27.4766C54.9055 26.5552 54.9055 26.5552 55.8213 26.5552C57.7517 26.5552 59.6821 26.5552 61.6087 26.5552C61.9431 26.5552 62.0305 26.6382 62.0267 26.9706C62.0267 33.577 62.0267 40.1809 62.0267 46.7823C62.0267 47.0806 61.9621 47.1864 61.6467 47.1826C59.5111 47.1826 57.3742 47.1826 55.2361 47.1826C54.9397 47.1826 54.9055 47.0844 54.9093 46.8276C54.9093 45.9061 54.9093 44.9809 54.9093 44.0669C54.8257 44.0216 54.8029 44.0669 54.7877 44.1085C52.9599 47.3072 49.3917 48.3873 45.8881 47.1901C43.1597 46.2611 41.4763 44.2671 40.6821 41.6009C39.6295 38.0509 39.6523 34.4896 41.1647 31.053C42.3389 28.4094 44.3605 26.6798 47.2979 26.1435C47.3967 26.1435 47.5487 26.1699 47.5943 26.0113L49.6425 26ZM47.2371 36.8462C47.1847 37.9987 47.3965 39.1481 47.8565 40.2073C48.0545 40.6677 48.3556 41.0771 48.7368 41.4044C49.1181 41.7316 49.5696 41.968 50.0567 42.0956C52.0517 42.6167 53.9099 41.7179 54.6167 39.7655C55.33 37.7778 55.3098 35.6029 54.5597 33.6286C54.0049 32.118 52.8155 31.3627 51.2043 31.3362C50.4715 31.301 49.7462 31.4967 49.132 31.8955C48.5179 32.2943 48.0462 32.8757 47.7843 33.5568C47.3755 34.604 47.1892 35.724 47.2371 36.8462Z" fill="#010101"/>
<path d="M76.1817 37.6582C76.6643 36.3062 77.1051 35.0788 77.5497 33.8514C78.3667 31.5855 79.1951 29.3196 80.0045 27.0537C80.0116 26.9964 80.03 26.9412 80.0587 26.8911C80.0874 26.841 80.1259 26.7971 80.1719 26.7619C80.2179 26.7268 80.2704 26.7011 80.3265 26.6863C80.3826 26.6716 80.4411 26.6681 80.4985 26.676C82.5011 26.676 84.5037 26.6949 86.5063 26.676C86.8863 26.676 86.9091 26.7742 86.7799 27.0914C83.175 36.0041 79.5739 44.9179 75.9765 53.8331C75.8929 54.037 75.8359 54.2107 75.5243 54.2107C73.3887 54.1918 71.2493 54.2107 69.0909 54.2107C69.0932 53.9854 69.1534 53.7644 69.2657 53.5687C70.2791 50.9176 71.3 48.274 72.3285 45.638C72.3905 45.5075 72.4226 45.365 72.4226 45.2207C72.4226 45.0764 72.3905 44.9339 72.3285 44.8034C69.6913 38.9548 67.0617 33.1075 64.4397 27.2614C64.3637 27.0877 64.2953 26.9139 64.2231 26.7402C64.3819 26.6755 64.5559 26.6571 64.7247 26.6873C66.9515 26.6873 69.1783 26.6873 71.4051 26.6873C71.555 26.6591 71.7101 26.6898 71.8377 26.7729C71.9652 26.8561 72.0554 26.9851 72.0891 27.133C73.4267 30.5961 74.7833 34.0629 76.1817 37.6582Z" fill="#010101"/>
<path d="M96.0025 41.9256H102.189C103.241 41.9256 104.298 41.9256 105.35 41.9256C105.616 41.9256 105.708 41.9822 105.704 42.2617C105.704 43.8252 105.704 45.3887 105.704 46.9521C105.704 47.2052 105.658 47.3298 105.366 47.3298C99.4453 47.3298 93.5223 47.3298 87.5969 47.3298C87.3233 47.3298 87.2853 47.2278 87.2853 46.9937C87.2853 45.5511 87.2853 44.1046 87.2853 42.662C87.293 42.5526 87.3237 42.446 87.3754 42.3491C87.4271 42.2521 87.4987 42.1671 87.5855 42.0993L96.4357 32.3445L96.6485 32.1066C96.5421 31.9744 96.4015 32.0424 96.2685 32.0424C93.8213 32.0424 91.3703 32.0424 88.9231 32.0424C88.4937 32.0424 88.4253 31.9102 88.4253 31.5288C88.4253 30.0522 88.4253 28.5793 88.3797 27.1065C88.3797 26.7666 88.4709 26.6948 88.8015 26.6948C94.0683 26.6948 99.3376 26.6948 104.609 26.6948C104.989 26.6948 105.035 26.827 105.031 27.148C105.031 28.6057 105.031 30.0673 105.031 31.525C105.035 31.6474 105.014 31.7692 104.97 31.8834C104.926 31.9976 104.859 32.1017 104.773 32.1897C101.974 35.2789 99.1767 38.3769 96.3825 41.4837C96.2723 41.6121 96.1697 41.733 96.0025 41.9256Z" fill="#010101"/>
<path d="M119.426 55.0002C125.155 55.0002 129.8 50.3843 129.8 44.6903C129.8 38.9963 125.155 34.3804 119.426 34.3804C113.697 34.3804 109.052 38.9963 109.052 44.6903C109.052 50.3843 113.697 55.0002 119.426 55.0002Z" fill="#DCF915"/>
</g>
<defs>
<clipPath id="clip0_3_2206">
<rect width="114" height="29" fill="white" transform="translate(15.8 26)"/>
</clipPath>
</defs>
</svg>
