<svg width="145" height="80" viewBox="0 0 145 80" fill="none" xmlns="http://www.w3.org/2000/svg">
<rect x="0.400024" width="144" height="80" rx="6" fill="white"/>
<g clip-path="url(#clip0_3_2189)">
<path fill-rule="evenodd" clip-rule="evenodd" d="M28.2867 35.5174C28.2867 44.4058 38.8047 43.9614 40.4343 44.5539C42.5083 45.2946 42.3601 48.9982 37.6196 48.9982C35.1012 48.9982 33.0272 48.7019 30.657 47.9612C30.0644 47.813 29.4719 47.5168 28.8793 47.3686V54.035C30.657 54.9238 36.7308 55.0719 39.2492 55.0719C45.7674 55.0719 51.693 50.6277 50.0634 43.9614C48.4339 36.7025 38.9529 37.4432 37.6196 36.7025C35.9901 35.9618 35.9901 33.8878 37.7678 33.1471C40.138 32.1101 44.8785 33.1471 47.2488 33.8878C47.9895 34.1841 48.7302 34.4804 49.3227 34.6285V28.2585C48.2858 27.9622 47.6932 27.6659 45.6192 27.2215C42.6564 26.6289 41.4713 26.6289 38.5085 26.6289C33.1754 26.6289 28.2867 30.1843 28.2867 35.5174Z" fill="#852164"/>
<path fill-rule="evenodd" clip-rule="evenodd" d="M52.1334 28.1103V54.7757H59.8367V46.7761C59.9848 47.0723 59.8367 46.9242 59.9848 47.2205L60.7255 48.5537C61.0218 49.1463 61.3181 49.7389 61.6144 50.4796C61.9107 51.2203 62.7995 53.8868 62.7995 54.7757H72.1324C71.9842 54.4794 71.8361 53.8868 71.688 53.4424L69.9103 49.4426C66.2067 41.8874 66.9474 45.8872 70.2065 39.5172C70.7991 38.6283 72.4287 35.2211 72.5768 34.0359H63.8365C63.5402 35.5174 60.7255 40.406 59.8367 41.1467V26.6289C58.3553 26.6289 53.3185 28.1103 52.1334 28.1103Z" fill="#852065"/>
<path fill-rule="evenodd" clip-rule="evenodd" d="M98.2134 27.9622V54.7757H105.62V26.6289C104.435 26.6289 99.8429 27.814 98.2134 27.9622Z" fill="#862064"/>
<path fill-rule="evenodd" clip-rule="evenodd" d="M108.88 27.9622V54.7757H116.287V26.6289C115.398 26.6289 109.769 27.9622 108.88 27.9622Z" fill="#852164"/>
<path fill-rule="evenodd" clip-rule="evenodd" d="M73.4664 42.9208V54.7721H80.8735V45.8836C80.8735 41.7357 81.466 40.1061 85.614 40.1061V33.8842C84.2807 33.8842 85.4658 33.7361 83.2437 33.8842C81.0216 34.1805 79.3921 34.1805 77.0218 35.6619C74.9478 36.9952 73.4664 39.5136 73.4664 42.9208Z" fill="#862164"/>
<path fill-rule="evenodd" clip-rule="evenodd" d="M87.8446 54.7776H95.2516V34.186H87.8446V54.7776Z" fill="#852164"/>
<path fill-rule="evenodd" clip-rule="evenodd" d="M87.986 28.4081C87.986 29.5932 88.1341 30.3339 89.0229 31.2228C92.282 34.4819 97.467 29.5932 94.0597 26.0379C91.8376 23.6676 87.986 25.7416 87.986 28.4081Z" fill="#862165"/>
</g>
<defs>
<clipPath id="clip0_3_2189">
<rect width="88" height="32" fill="white" transform="translate(28.4 24)"/>
</clipPath>
</defs>
</svg>
