<svg width="116" height="40" viewBox="0 0 116 40" fill="none" xmlns="http://www.w3.org/2000/svg">
<g clip-path="url(#clip0_3_2224)">
<g clip-path="url(#clip1_3_2224)">
<g clip-path="url(#clip2_3_2224)">
<path d="M20.0486 39.9999C31.1146 39.9999 40.0854 31.0291 40.0854 19.9631C40.0854 8.89707 31.1146 -0.0737305 20.0486 -0.0737305C8.98251 -0.0737305 0.0117188 8.89707 0.0117188 19.9631C0.0117188 31.0291 8.98251 39.9999 20.0486 39.9999Z" fill="#82B62E"/>
<path d="M27.2084 8.62744H19.9608H19.96H12.7133C12.7133 8.62744 11.6065 10.5606 10.089 10.7353C4.70614 29.2446 19.9525 33.8161 19.9608 33.8192H19.962C19.9716 33.8161 35.2179 29.2446 29.8351 10.7353C28.3129 10.5597 27.2084 8.62744 27.2084 8.62744Z" fill="#99CC33"/>
<path d="M32.3785 9.17676L32.234 8.68693L31.6634 8.62158C30.58 8.49925 29.5179 7.07818 29.2327 6.58852L28.9922 6.18115H10.9266L10.6891 6.58954C10.4039 7.07801 9.35036 8.49822 8.25795 8.62158L7.686 8.68693L7.54177 9.17676C1.02274 31.2131 19.5288 36.6846 19.7194 36.7338L19.9653 36.7975L20.2122 36.7321C20.3993 36.6808 38.8491 31.0458 32.3785 9.17676ZM19.9608 35.2185C17.7302 34.4597 3.71792 28.8714 9.06721 9.98756C10.4688 9.56993 11.4832 8.34031 11.9449 7.6799H27.9766C28.4387 8.34031 29.4519 9.57113 30.8545 9.98756C36.2034 28.8724 22.1895 34.4597 19.9608 35.2185Z" fill="white"/>
<path d="M24.0234 17.2799H23.4668C23.4668 14.7135 21.9842 13.3828 19.941 13.3828C17.898 13.3828 16.4154 14.7135 16.4154 17.2799H15.8586C15.0388 17.2799 14.7139 17.5966 14.7139 18.4166V23.6124C14.7139 24.4323 15.0388 25.15 15.8586 25.15H24.0235C24.8434 25.15 25.3214 24.4323 25.3214 23.6124V18.4166C25.3213 17.5966 24.8434 17.2799 24.0234 17.2799ZM20.8688 23.6102H19.0132L19.3696 21.0235C19.0048 20.8187 18.7581 20.3831 18.7581 19.9352C18.7581 19.2757 19.2927 18.7177 19.9525 18.7177C20.6122 18.7177 21.147 19.2414 21.147 19.9012C21.147 20.3578 20.8907 20.8401 20.5138 21.0413L20.8688 23.6102ZM17.5288 17.2799C17.5288 14.8846 18.7403 14.4963 19.941 14.4963C21.1419 14.4963 22.3537 14.8846 22.3537 17.2799H17.5288Z" fill="white"/>
<path d="M48.5439 15.8095C48.9448 15.8095 49.2753 15.7761 49.5368 15.7094C49.7977 15.6427 50.0073 15.5517 50.1652 15.4362C50.3229 15.3209 50.4323 15.1843 50.4932 15.0263C50.5537 14.8687 50.5842 14.6925 50.5842 14.4981C50.5842 14.0854 50.3897 13.7422 50.0013 13.4688C49.6126 13.1956 48.9448 12.9013 47.9976 12.5853C47.5846 12.4395 47.1716 12.2729 46.759 12.0844C46.3461 11.8962 45.9757 11.6596 45.6479 11.374C45.3201 11.0888 45.0527 10.7427 44.8463 10.3357C44.6397 9.92898 44.5367 9.43401 44.5367 8.85111C44.5367 8.26821 44.646 7.74296 44.8645 7.27555C45.083 6.8083 45.3928 6.41035 45.7935 6.08237C46.1944 5.75439 46.6799 5.50254 47.2508 5.32649C47.8214 5.15061 48.4651 5.0625 49.1816 5.0625C50.0316 5.0625 50.7664 5.15352 51.3857 5.33573C52.0051 5.51794 52.5151 5.71829 52.9158 5.93694L52.0961 8.17736C51.7437 7.99532 51.352 7.8345 50.9212 7.69472C50.4899 7.55528 49.9708 7.48513 49.3636 7.48513C48.6834 7.48513 48.1947 7.5794 47.8974 7.76743C47.5997 7.9558 47.4512 8.24426 47.4512 8.63263C47.4512 8.86343 47.5058 9.05779 47.6151 9.21553C47.7246 9.37345 47.8793 9.51614 48.0796 9.6436C48.2801 9.77123 48.5106 9.88672 48.7718 9.98971C49.0327 10.0931 49.3212 10.1993 49.6372 10.3085C50.293 10.5516 50.8636 10.7911 51.3495 11.0281C51.835 11.2648 52.2388 11.5412 52.5608 11.8568C52.8824 12.1726 53.1223 12.5431 53.2802 12.9679C53.438 13.393 53.517 13.909 53.517 14.5162C53.517 15.6942 53.1042 16.6082 52.2785 17.2576C51.4525 17.9074 50.2078 18.2321 48.5443 18.2321C47.9857 18.2321 47.4816 18.1986 47.0325 18.1319C46.5831 18.065 46.1855 17.983 45.8393 17.886C45.4932 17.789 45.1955 17.6857 44.9468 17.5763C44.6977 17.467 44.4883 17.364 44.3184 17.2667L45.1197 15.0079C45.496 15.2146 45.9605 15.3996 46.5134 15.5635C47.0656 15.7276 47.7427 15.8095 48.5439 15.8095Z" fill="#999999"/>
<path d="M59.1445 15.8095C59.5454 15.8095 59.8759 15.7761 60.1374 15.7094C60.3983 15.6427 60.6079 15.5517 60.7658 15.4362C60.9235 15.3209 61.0328 15.1843 61.0937 15.0263C61.1543 14.8687 61.1848 14.6925 61.1848 14.4981C61.1848 14.0854 60.9902 13.7422 60.6019 13.4688C60.2131 13.1956 59.5454 12.9013 58.5982 12.5853C58.1852 12.4395 57.7722 12.2729 57.3595 12.0844C56.9467 11.8962 56.5763 11.6596 56.2485 11.374C55.9207 11.0888 55.6533 10.7427 55.4469 10.3357C55.2403 9.92898 55.1373 9.43401 55.1373 8.85111C55.1373 8.26821 55.2466 7.74296 55.4651 7.27555C55.6835 6.8083 55.9934 6.41035 56.3941 6.08237C56.7949 5.75439 57.2805 5.50254 57.8514 5.32649C58.422 5.15061 59.0656 5.0625 59.7822 5.0625C60.6321 5.0625 61.367 5.15352 61.9863 5.33573C62.6057 5.51794 63.1157 5.71829 63.5164 5.93694L62.6967 8.17736C62.3442 7.99532 61.9526 7.8345 61.5218 7.69472C61.0905 7.55528 60.5714 7.48513 59.9642 7.48513C59.284 7.48513 58.7953 7.5794 58.498 7.76743C58.2003 7.9558 58.0518 8.24426 58.0518 8.63263C58.0518 8.86343 58.1063 9.05779 58.2157 9.21553C58.3252 9.37345 58.4798 9.51614 58.6802 9.6436C58.8807 9.77123 59.1112 9.88672 59.3724 9.98971C59.6333 10.0931 59.9218 10.1993 60.2378 10.3085C60.8936 10.5516 61.4642 10.7911 61.9501 11.0281C62.4356 11.2648 62.8394 11.5412 63.1614 11.8568C63.483 12.1726 63.7229 12.5431 63.8808 12.9679C64.0385 13.393 64.1178 13.909 64.1178 14.5162C64.1178 15.6942 63.7047 16.6082 62.8791 17.2576C62.053 17.9074 60.8084 18.2321 59.1449 18.2321C58.5863 18.2321 58.0822 18.1986 57.6331 18.1319C57.1837 18.065 56.7861 17.983 56.4399 17.886C56.0938 17.789 55.7961 17.6857 55.5474 17.5763C55.2983 17.467 55.0888 17.364 54.9189 17.2667L55.7203 15.0079C56.0966 15.2146 56.5611 15.3996 57.114 15.5635C57.6661 15.7276 58.3433 15.8095 59.1445 15.8095Z" fill="#999999"/>
<path d="M74.7373 15.5364V17.9773H66.3036V5.354H69.145V15.5364H74.7373Z" fill="#999999"/>
<path d="M48.5439 31.8139C48.9448 31.8139 49.2753 31.7805 49.5368 31.7138C49.7977 31.6471 50.0073 31.5561 50.1652 31.4406C50.3229 31.3253 50.4323 31.1887 50.4932 31.0306C50.5537 30.8731 50.5842 30.6969 50.5842 30.5025C50.5842 30.0898 50.3897 29.7466 50.0013 29.4732C49.6126 29.2 48.9448 28.9057 47.9976 28.5897C47.5846 28.4439 47.1716 28.2773 46.759 28.0888C46.3461 27.9006 45.9757 27.6639 45.6479 27.3784C45.3201 27.0932 45.0527 26.7471 44.8463 26.3401C44.6397 25.9334 44.5367 25.4384 44.5367 24.8555C44.5367 24.2726 44.646 23.7474 44.8645 23.2799C45.083 22.8127 45.3928 22.4147 45.7935 22.0868C46.1944 21.7588 46.6799 21.5069 47.2508 21.3309C47.8214 21.155 48.4651 21.0669 49.1816 21.0669C50.0316 21.0669 50.7664 21.1579 51.3857 21.3401C52.0051 21.5223 52.5151 21.7227 52.9158 21.9413L52.0961 24.1818C51.7437 23.9997 51.352 23.8389 50.9212 23.6991C50.4899 23.5597 49.9708 23.4895 49.3636 23.4895C48.6834 23.4895 48.1947 23.5838 47.8974 23.7718C47.5997 23.9602 47.4512 24.2487 47.4512 24.637C47.4512 24.8678 47.5058 25.0622 47.6151 25.2199C47.7246 25.3778 47.8793 25.5205 48.0796 25.648C48.2801 25.7756 48.5106 25.8911 48.7718 25.9941C49.0327 26.0974 49.3212 26.2037 49.6372 26.3128C50.293 26.556 50.8636 26.7955 51.3495 27.0325C51.835 27.2692 52.2388 27.5456 52.5608 27.8612C52.8824 28.177 53.1223 28.5475 53.2802 28.9723C53.438 29.3974 53.517 29.9134 53.517 30.5206C53.517 31.6986 53.1042 32.6125 52.2785 33.262C51.4525 33.9118 50.2078 34.2365 48.5443 34.2365C47.9857 34.2365 47.4816 34.203 47.0325 34.1363C46.5831 34.0694 46.1855 33.9874 45.8393 33.8904C45.4932 33.7934 45.1955 33.6901 44.9468 33.5807C44.6977 33.4714 44.4883 33.3684 44.3184 33.2711L45.1197 31.0123C45.496 31.219 45.9605 31.404 46.5134 31.5679C47.0656 31.7319 47.7427 31.8139 48.5439 31.8139Z" fill="#666666"/>
<path d="M55.7023 33.9816V21.3584H64.2272V23.7446H58.5439V26.2218H63.5895V28.5532H58.5439V31.5952H64.646V33.9814L55.7023 33.9816Z" fill="#666666"/>
<path d="M72.4968 34.236C70.4445 34.236 68.8811 33.6655 67.8063 32.5238C66.7317 31.3824 66.1943 29.7614 66.1943 27.6602C66.1943 26.6159 66.3582 25.6839 66.6862 24.8643C67.014 24.0446 67.4631 23.3523 68.0341 22.7877C68.6048 22.223 69.2847 21.7949 70.0743 21.5035C70.8634 21.212 71.7195 21.0664 72.6427 21.0664C73.1769 21.0664 73.6627 21.1059 74.0999 21.1848C74.5372 21.2638 74.9196 21.355 75.2476 21.458C75.5754 21.5614 75.8486 21.6674 76.0672 21.7768C76.2857 21.8861 76.4435 21.9711 76.5408 22.0319L75.7211 24.327C75.3324 24.1207 74.8802 23.9445 74.364 23.7989C73.8477 23.6531 73.2621 23.5804 72.6064 23.5804C72.1691 23.5804 71.7411 23.6533 71.3222 23.7989C70.9032 23.9447 70.5327 24.1785 70.211 24.5002C69.8892 24.822 69.631 25.2379 69.437 25.7479C69.2425 26.258 69.1456 26.8773 69.1456 27.6058C69.1456 28.1887 69.2093 28.7323 69.3367 29.2361C69.4642 29.7401 69.6705 30.1742 69.9561 30.5385C70.2413 30.9027 70.6148 31.1913 71.0764 31.4036C71.5376 31.6163 72.0964 31.7224 72.7522 31.7224C73.1649 31.7224 73.5355 31.6981 73.8633 31.6495C74.1911 31.6011 74.4826 31.5433 74.7375 31.4764C74.9925 31.4098 75.2171 31.3338 75.4115 31.2486C75.6056 31.1638 75.7817 31.0847 75.9396 31.0119L76.7229 33.2887C76.3222 33.5318 75.7574 33.7503 75.0289 33.9445C74.3002 34.1387 73.4561 34.236 72.4968 34.236Z" fill="#666666"/>
<path d="M83.4808 34.2364C82.5942 34.2364 81.8293 34.1116 81.1858 33.8629C80.542 33.6141 80.0109 33.268 79.5919 32.8245C79.1731 32.3814 78.8634 31.8531 78.6629 31.2399C78.4626 30.6269 78.3623 29.9497 78.3623 29.2089V21.3581H81.2039V28.9721C81.2039 29.4821 81.2614 29.9165 81.3771 30.2744C81.4922 30.6329 81.6503 30.9242 81.8506 31.1487C82.051 31.3735 82.2938 31.5343 82.5793 31.6313C82.8645 31.7287 83.1773 31.7771 83.5174 31.7771C84.2095 31.7771 84.771 31.5648 85.2023 31.1395C85.6333 30.7146 85.8488 29.992 85.8488 28.9719V21.3579H88.6905V29.2087C88.6905 29.9495 88.5871 30.6294 88.3806 31.2488C88.1741 31.8681 87.8583 32.3995 87.4335 32.8425C87.0083 33.2859 86.468 33.629 85.8122 33.8718C85.1564 34.1145 84.3794 34.2364 83.4808 34.2364Z" fill="#666666"/>
<path d="M95.1197 21.2124C97.014 21.2124 98.465 21.5494 99.4731 22.2234C100.481 22.8973 100.985 23.9447 100.985 25.3656C100.985 26.2522 100.782 26.9716 100.375 27.5241C99.9679 28.0767 99.382 28.5109 98.6171 28.8264C98.872 29.1424 99.1391 29.5036 99.4187 29.9101C99.6979 30.3171 99.9742 30.7421 100.248 31.1852C100.521 31.6287 100.785 32.0901 101.04 32.5697C101.295 33.0496 101.532 33.5199 101.75 33.9813H98.5738C98.3422 33.5687 98.1073 33.1497 97.8696 32.7245C97.632 32.2997 97.3885 31.8867 97.1385 31.4858C96.8886 31.085 96.6417 30.7057 96.3981 30.3474C96.1541 29.9895 95.9101 29.6644 95.6667 29.3729H94.2641V33.9813H91.4226V21.5404C92.0418 21.4192 92.6822 21.334 93.3441 21.2853C94.0054 21.2369 94.5974 21.2124 95.1197 21.2124ZM95.2836 23.635C95.0771 23.635 94.892 23.6414 94.7281 23.6532C94.5642 23.6653 94.4093 23.6776 94.2635 23.6896V27.1141H95.0651C96.1336 27.1141 96.8987 26.9807 97.3603 26.7135C97.8215 26.4464 98.0523 25.9911 98.0523 25.3473C98.0523 24.728 97.8185 24.2879 97.351 24.0267C96.8833 23.7657 96.1943 23.635 95.2836 23.635Z" fill="#666666"/>
<path d="M103.571 33.9816V21.3584H112.096V23.7446H106.413V26.2218H111.458V28.5532H106.413V31.5952H112.515V33.9814L103.571 33.9816Z" fill="#666666"/>
</g>
</g>
</g>
<defs>
<clipPath id="clip0_3_2224">
<rect width="116" height="40" fill="white"/>
</clipPath>
<clipPath id="clip1_3_2224">
<rect width="172.64" height="40" fill="white"/>
</clipPath>
<clipPath id="clip2_3_2224">
<rect width="172.64" height="39.9998" fill="white"/>
</clipPath>
</defs>
</svg>
