<svg width="144" height="80" viewBox="0 0 144 80" fill="none" xmlns="http://www.w3.org/2000/svg">
<rect width="144" height="80" rx="6" fill="white"/>
<g clip-path="url(#clip0_3_2176)">
<path fill-rule="evenodd" clip-rule="evenodd" d="M56.983 55.4879L62.201 24.5398H70.6578L65.4398 55.4879H56.983ZM95.8481 25.2595C94.2287 24.7197 91.7097 24 88.291 24C80.0142 24 74.2564 28.1384 74.0765 34.2561C74.0765 38.5744 78.3948 41.0934 81.4536 42.5329C84.8723 44.1523 85.9519 45.0519 85.9519 46.4914C85.9519 48.4706 83.2529 49.3702 80.9138 49.3702C77.4951 49.3702 75.6958 49.0104 72.9969 47.7509L71.7374 47.391L70.6578 54.2284C72.637 55.128 76.2356 55.8478 80.0142 55.8478C88.8308 55.8478 94.5886 51.7093 94.7685 45.4118C94.7685 41.8132 92.4294 39.1142 87.5713 36.955C84.6924 35.5156 82.8931 34.6159 82.8931 33.1765C82.8931 31.917 84.5124 30.4775 87.7512 30.4775C90.4502 30.4775 92.4294 31.0173 94.0488 31.5571L94.7685 31.917L95.8481 25.2595ZM117.62 24.5398H110.962C108.983 24.5398 107.544 25.0796 106.644 27.0588L94.0488 55.4879H102.865C102.865 55.4879 104.305 51.7093 104.665 50.8097H115.461C115.82 51.8893 116.54 55.4879 116.54 55.4879H124.277L117.62 24.5398ZM107.184 44.5121C107.903 42.7128 110.422 35.8754 110.422 35.8754C110.422 35.8754 111.142 34.0761 111.682 32.8166L112.222 35.5156C112.222 35.5156 113.841 42.8927 114.201 44.5121H107.184ZM49.7858 24.5398L41.6889 45.5917L40.7893 41.2734C39.1699 36.4152 34.4917 31.0173 29.0938 28.3183L36.6508 55.4879H45.4675L58.7823 24.5398H49.7858Z" fill="#01549A"/>
<path fill-rule="evenodd" clip-rule="evenodd" d="M33.956 24.5396H20.4612L20.2812 25.2593C30.8972 27.7783 37.9145 33.896 40.7934 41.2731L37.7345 27.2385C37.3747 25.2593 35.7553 24.5396 33.956 24.5396Z" fill="#F7A707"/>
</g>
<defs>
<clipPath id="clip0_3_2176">
<rect width="104" height="32" fill="white" transform="translate(20 24)"/>
</clipPath>
</defs>
</svg>
