<svg width="16" height="17" viewBox="0 0 16 17" fill="none" xmlns="http://www.w3.org/2000/svg">
<path d="M14.3957 7.72318L14.1867 6.50881L15.2032 4.82538L13.1291 2.1482L11.205 2.73036L10.3457 2.26501L9.64538 0.5H6.3582L5.65788 2.26315L4.79857 2.73036L2.8745 2.1482L0.800357 4.82538L1.81688 6.50881L1.60786 7.72318L0 8.75585L0.643144 11.9484L2.59044 12.3174L3.19428 13.1813L3.17284 15.0947L6.0134 16.5L7.38187 15.2782H8.62171L9.99017 16.5L12.8289 15.0947L12.8075 13.1813L13.4113 12.3155L15.3586 11.9466L16 8.754L14.3957 7.72318ZM8.00179 11.509C6.38857 11.509 5.07727 10.1463 5.07727 8.47404C5.07727 6.79988 6.38857 5.43905 8.00179 5.43905C9.61501 5.43905 10.9263 6.80174 10.9263 8.47404C10.9263 10.1463 9.61501 11.509 8.00179 11.509Z" fill="white"/>
</svg>
